<svg xmlns="http://www.w3.org/2000/svg" viewBox="0 0 521.54 128.59"><defs><style>.cls-1{fill:#fff;stroke:#fff;stroke-linecap:round;stroke-linejoin:round;}</style></defs><title>1Asset 2</title><g id="Layer_2" data-name="Layer 2"><g id="Layer_2-2" data-name="Layer 2"><path class="cls-1" d="M79.23,78.66a4.54,4.54,0,0,1,.4,1.26c.31,1.86-.43,3.73-2.21,5.64l-1,.78c2.59.71,3.91,1.77,4,3.16-.38,1.69-2.18,3-5.4,4.12.92,1.12,1.26,2.07,1,2.84a16.11,16.11,0,0,0-.52,1.63,2.54,2.54,0,0,1-1.29,1.31,11.54,11.54,0,0,1-1.3.25,6,6,0,0,1-1.7,1.94,25.28,25.28,0,0,1-6.36,4.23,5.74,5.74,0,0,1-2.79-.11,7.69,7.69,0,0,1-.68,2.52,19.83,19.83,0,0,1-7,6.39c-2.15,1.15-3.87.7-5.18-1.39a13.15,13.15,0,0,1-3.19,2.34,2.27,2.27,0,0,1-1.79,0,9.26,9.26,0,0,1-1.33-.81c-3.68,4.65-6.86,7.53-9.6,8.64s-5,.84-6.89-.74a2,2,0,0,1-.55-.44c-2,2.82-3.8,4.58-5.44,5.29-2.06.88-3.57.74-4.51-.46a11.15,11.15,0,0,1-.16-4.09,5.49,5.49,0,0,1-4.59.85c-1.13-.39-1.69-1.69-1.68-3.92.28-2.12,1.44-4.84,3.53-8.14a5.93,5.93,0,0,1-1.16.34,2.22,2.22,0,0,1-1.58-.3,2.42,2.42,0,0,1-.24-.64,17.77,17.77,0,0,1,.73-3.07c-2.32,1.07-4.31,1.07-6,0A4.44,4.44,0,0,1,4.15,104a28.54,28.54,0,0,1,2.74-6.31,5.68,5.68,0,0,1-2-.5c-.83-.33-1.24-1.38-1.23-3.16a11.7,11.7,0,0,1,2-5.72C4,88.26,3.09,87.71,3,86.63c-.2-2.13.54-4.52,2.24-7.15-.49-.23-1.17-.57-2-1a7.39,7.39,0,0,1-2.56-4,6,6,0,0,1,0-3,18.47,18.47,0,0,1,4.71-8.71,19.65,19.65,0,0,1,7.13-5.49,10.47,10.47,0,0,1,2.88-.77A10.34,10.34,0,0,1,20.17,52a5.54,5.54,0,0,1,2.95-.26c1.08.18,1.76.58,2,1.19A14.29,14.29,0,0,1,33,50a18,18,0,0,1,2.25.31,21,21,0,0,1,8.06-7.61c2.48-.93,4.18-.27,5.12,2a18.63,18.63,0,0,1,1.94-1.24c2.4-1.32,4.36-1.62,5.87-.93a2,2,0,0,1,1.46,2.29,4.33,4.33,0,0,1-.5,1.39,10.18,10.18,0,0,1,6.76.8,6.13,6.13,0,0,1,3.74,4.5,9.31,9.31,0,0,1-1.13,5.73,5.93,5.93,0,0,1,2.87,1.53,2.46,2.46,0,0,1,.68,2.88q-.58,1.4-3.33,3.09c1.55,1.08,2.39,2,2.53,2.85a2.14,2.14,0,0,1-.08,1.09c-.44,1-1.88,2.17-4.33,3.52A5.15,5.15,0,0,1,67.12,75,2.78,2.78,0,0,1,67,76.42a13.42,13.42,0,0,1,7-.77A8,8,0,0,1,79.23,78.66ZM78.08,81a2.74,2.74,0,0,0-1.26-3.18A9,9,0,0,0,69,77.09a12.18,12.18,0,0,0-3.18,1.6l-1.09,1a1.77,1.77,0,0,1-1.38.46C63,80,63,79.59,63.19,79a11.62,11.62,0,0,0,2.26-3.11c.35-.77-.06-1.67-1.22-2.7-.48,0-1.21.1-2.17.15-.72-.2-1.08-.54-1.11-1q.11-.43.78-.75a10.73,10.73,0,0,0,1.76-.42,10.12,10.12,0,0,0,4.22-2.59,1.79,1.79,0,0,0,.19-1,2.52,2.52,0,0,0-2.45-1.82,3.38,3.38,0,0,1-1.7-.26.68.68,0,0,1,0-.82,2,2,0,0,1,1.2-.55l2.56-1.69a2.42,2.42,0,0,0,1.28-2.15,2,2,0,0,0-1-1.42,4.9,4.9,0,0,0-2.9.15c-.51-.1-.75-.38-.7-.83a3.23,3.23,0,0,1,.6-.77,8.33,8.33,0,0,0,1.54-6,4.67,4.67,0,0,0-1-2.27c-2.29-2-5.1-2.46-8.41-1.41a4,4,0,0,1-2.07.53q-.39-.11-.3-.63a14.73,14.73,0,0,0,1.61-3.48c0-.22-.27-.45-.88-.68-1.35-.2-3,.32-4.89,1.58a3.61,3.61,0,0,0-1.28,1.25A8.4,8.4,0,0,1,48,47.56a2,2,0,0,1-1.21.1.83.83,0,0,1-.38-.52c.21-.68.43-1.35.65-2a4.51,4.51,0,0,0-.5-1.13,2.27,2.27,0,0,0-2.43-.29,48.11,48.11,0,0,0-4.67,3.23,15.94,15.94,0,0,0-3.16,5,1.88,1.88,0,0,1-.71.26,3.73,3.73,0,0,0-2.16-.84,7.78,7.78,0,0,0-3.86.56,11.55,11.55,0,0,0-4.25,2.8,7.24,7.24,0,0,0-.69.8,1.38,1.38,0,0,1-1.09.64c-.46,0-.7-.17-.75-.37a2.39,2.39,0,0,1,.45-1.21,2.15,2.15,0,0,0,.44-1.29A1.66,1.66,0,0,0,22,52.56a3.41,3.41,0,0,0-2.07,1,9.18,9.18,0,0,0-3.58,4.51,1.11,1.11,0,0,1-1,.18,1.41,1.41,0,0,0-1,.11C9.33,60.05,5.52,63.7,3,69.22A9,9,0,0,0,2.21,75,4.21,4.21,0,0,0,3.73,77.4L6,78.5a3.31,3.31,0,0,1,1.13.84,28.46,28.46,0,0,0-1.82,3c-.71,2.26-.93,3.71-.65,4.37a1.7,1.7,0,0,0,1.71.08,7.7,7.7,0,0,1,2-.57c.34,0,.53.18.55.55-.18.3-.36.6-.53.9a6.53,6.53,0,0,0-1.2.86,10,10,0,0,0-2,6.12Q5.38,96,5.93,96c.44.3,1,.23,1.62-.22l1.61-1a1.11,1.11,0,0,1,1.12,0,.6.6,0,0,1,0,.75,21.66,21.66,0,0,0-3.49,5.19c-1.09,2.66-1.51,4.48-1.26,5.49a2.64,2.64,0,0,0,.66,1.2c.58.63,1.69.64,3.32,0,.69-.42,1.73-1,3.09-1.69.48,0,.76.09.83.39a22.7,22.7,0,0,0-1.64,4c.32.31.9.37,1.75.2s1.42-.11,1.74.2a.81.81,0,0,1,.05.64c-3.37,4.56-4.73,8.07-4.15,10.48a1.33,1.33,0,0,0,1.08.93,2.5,2.5,0,0,0,1.75-.1,5.81,5.81,0,0,0,1.39-1,5.52,5.52,0,0,1,1.32-.95,1.89,1.89,0,0,1,1.06-.12.86.86,0,0,1,.27.79,8.66,8.66,0,0,0-.79,4.33,1.66,1.66,0,0,0,1.24,1,4,4,0,0,0,3.31-1.26A7.24,7.24,0,0,0,23.7,123a24.24,24.24,0,0,1,1.72-2.71c.29-.34.64-.35,1.08,0q1.48,3,3.76,2.76a11.59,11.59,0,0,0,2.61-.73c2.58-1,5.53-3.78,8.9-8.2a4.14,4.14,0,0,1,.93-1.59.77.77,0,0,1,1.25.43c.34.75.6,1.17.8,1.26a2.38,2.38,0,0,0,1.81-.35,5.69,5.69,0,0,0,1.57-1.49,7.86,7.86,0,0,1,1.48-1.54,1.43,1.43,0,0,1,.84.19,11.28,11.28,0,0,0,.47,1.63,1.51,1.51,0,0,0,1.09,1,2.92,2.92,0,0,0,1.71-.13,15.39,15.39,0,0,0,3.08-2A23.76,23.76,0,0,0,59,109.23a6.64,6.64,0,0,0,1.51-2.82c.1-1.06,0-1.69-.26-1.87a3.6,3.6,0,0,1,.22-.73c.57-.41,1-.47,1.4-.15.49.7,1.33.9,2.53.6A16.52,16.52,0,0,0,71,99.64a2.16,2.16,0,0,1,0-1.14,1,1,0,0,1,.6-.68,2.58,2.58,0,0,1,.84,0,6.34,6.34,0,0,0,.86,0,2.76,2.76,0,0,0,1.15-2.08c.12-.68-.57-1.41-2.09-2.18a.62.62,0,0,1,.12-.85,7.56,7.56,0,0,1,2.31-.65,5.37,5.37,0,0,0,2.29-.8c1.34-.91,2-1.72,1.83-2.44-.09-.51-.67-.9-1.73-1.17a2.92,2.92,0,0,0-2,0q-1.44.28-2-.27a.44.44,0,0,1,0-.68.86.86,0,0,1,.75-.36C76.57,84.79,78,83,78.08,81ZM6.08,102l0-.08-.06.11ZM50.4,63.91a1,1,0,0,1-.55,1c-.45.26-.86.52-1.25.76a3.84,3.84,0,0,0-1.43,3.62,9.53,9.53,0,0,0,1.26,3.08q.06.3-.39.87a3.5,3.5,0,0,1-2.37,0,2.88,2.88,0,0,0-2.42.15,12.59,12.59,0,0,0-6.15,5.24,3,3,0,0,1-1.1.5c-.49,0-.8-.28-.94-.92s-.3-1-.5-1.08a1.92,1.92,0,0,0-1.49,0,21.68,21.68,0,0,0-2.72,2c-.31.29-.62.6-.92.94a1.41,1.41,0,0,1-1.2.47c-.17.07-.37,0-.61-.25s-.11-.79.46-1.34a8.75,8.75,0,0,0,2.45-7.72A3,3,0,0,0,30,69.81,12.44,12.44,0,0,1,27,69a1,1,0,0,1,.18-.9A32.91,32.91,0,0,0,31,66.92a30.72,30.72,0,0,0,5.7-4.63c0-.07.25-.35.62-.84a2.45,2.45,0,0,1,.9-.87.69.69,0,0,1,.81.27l.09.46c.06.59.14,1.13.24,1.64A1.2,1.2,0,0,0,40.44,64c1.09-.46,2.57-1.77,4.46-3.92a2.06,2.06,0,0,1,1-.42c.56.35.79.73.69,1.15a2.59,2.59,0,0,0,.35,3.23c.3.28.89.24,1.75-.09S50.09,63.63,50.4,63.91ZM56,84.19a.84.84,0,0,1,0,.9,3.21,3.21,0,0,1-1.63,1c-.91.34-1.43.79-1.57,1.33A3,3,0,0,0,55.15,90,1.85,1.85,0,0,1,56,91.41q-.09.51-.57.36a5.74,5.74,0,0,0-1.84.32c-1.26,1.32-1.86,2.41-1.81,3.27a7.36,7.36,0,0,0,.37.93c.19.37,0,.64-.47.83a20.19,20.19,0,0,0-3.13-.27,5.55,5.55,0,0,0-1.22.28A10.68,10.68,0,0,0,43,100.87a1.53,1.53,0,0,1-1.48-.79,1.55,1.55,0,0,0-1.48-.8,8.1,8.1,0,0,0-5,4.06,1.06,1.06,0,0,1-1.17,0c-.22-.19-.09-.82.41-1.9q1.44-4.77.95-6.64c-.45-2.13-1.37-3.45-2.76-3.94a.88.88,0,0,1-.27-.81,5.22,5.22,0,0,1,1.07-.58,2.31,2.31,0,0,1,1.71.69c.67.54,1.23.73,1.68.55a2.62,2.62,0,0,0,.65-.41,40.25,40.25,0,0,0,3.42-4.75,1,1,0,0,1,1-.46c.26.07.49.36.68.86a1,1,0,0,0,.94.76,3.83,3.83,0,0,0,2.42-1.63,24,24,0,0,1,2.12-2.24,1.18,1.18,0,0,1,.93.07,4.54,4.54,0,0,0,.64,1.41,1.75,1.75,0,0,0,1.83.9,9.12,9.12,0,0,0,2.38-.92A2.42,2.42,0,0,1,56,84.19ZM46.86,65.32c-1.7-.71-2.56-1.43-2.58-2.19-.38.3-1.12.81-2.21,1.54a4.83,4.83,0,0,1-3.86.35,2.84,2.84,0,0,1-.86-1.48,70.91,70.91,0,0,1-6.53,5.11c1.3,1.09,1.75,2.67,1.38,4.74l-.12-.12c0,.4-.14,1-.28,1.75a5.16,5.16,0,0,1-.35,1.46A6.22,6.22,0,0,1,35.91,76l.91.39a16.26,16.26,0,0,1,5.84-4.14,13.42,13.42,0,0,1,1.67-.45l1.37-.08-.19-.51A5.52,5.52,0,0,1,46.86,65.32ZM36.47,98.83c0,.18,0,.35-.07.53A.68.68,0,0,0,36.47,98.83Zm16.65-8.06a14.67,14.67,0,0,1-2-2.73,2.15,2.15,0,0,1,.15-1.12c0-.42,0-.58.18-.47a19.1,19.1,0,0,1-2-.34,2,2,0,0,1-1.43-1,14.59,14.59,0,0,1-2.88,2.53,4.08,4.08,0,0,1-3.72-.27,17.3,17.3,0,0,1-3,3.87,3.15,3.15,0,0,1-2.5.71,2.19,2.19,0,0,0,.45.82,2.09,2.09,0,0,1,.22.65c.68,1.17.71,3.22.12,6.14l1.53-.93c1.73-1,3.26-1,4.56.08a11.77,11.77,0,0,1,3.93-2.53A18.71,18.71,0,0,1,50,95.81c0-.24,0-.48-.05-.72A6.42,6.42,0,0,1,53.12,90.77ZM36.81,97.39l0,.26Zm0-.6-.09.45.09,0ZM32.22,73.05l0-.15-.09,0,0,.15Zm4.2-9-.23.25.09,0ZM48.28,83.33v-.08l-.09,0,0,.08ZM46,60.31l-.12-.12-.18.06ZM64,79.52l-.18.06.1,0A.11.11,0,0,0,64,79.52Zm.31-14.45,0-.08,0,.16Zm.41-7,0,.08Z"/><path class="cls-1" d="M109.14,59.93a1.82,1.82,0,0,1,.28.73c.09.67-.35,2.05-1.33,4.11l-.93,1.12a3.76,3.76,0,0,1,1.67,1,7.36,7.36,0,0,1,.25,1.14,7.9,7.9,0,0,1-1.27,5.07q2.84.33,3,1.5c.22.69,0,2.26-.75,4.69-.19.4-.38.79-.58,1.19a6.11,6.11,0,0,1,2.27.88q.68,1.68-1.67,4a7.66,7.66,0,0,1,.8,2.53,8.67,8.67,0,0,1-1.28,6,16.4,16.4,0,0,1-7.94,6.61,12.3,12.3,0,0,1-7.12.77,7.79,7.79,0,0,1-3.68-2,10.59,10.59,0,0,1-1.75-4.19,6.28,6.28,0,0,1,.68-4.08c-2-.33-3.19-1.12-3.52-2.37a3.81,3.81,0,0,1,1.51-4c-.57-.16-.88-.77-.93-1.84a4.6,4.6,0,0,1,.67-1.41,2.79,2.79,0,0,1-2.66-1.4,5.87,5.87,0,0,1-.3-4,4.51,4.51,0,0,1,2.71-3.39C86,70.92,85.91,69.19,87,67.2q-2.76-.17-3.27-1.56-1.44-2.09.55-4.53a13.3,13.3,0,0,1,1.54-1.26c-1.68-1-2.51-1.7-2.47-2.2a4.05,4.05,0,0,1,.37-2.29c-2.82-.32-4.34-1.29-4.55-3-.33-2.71,1-5.08,4-7.08a3.84,3.84,0,0,1,3.14-.73,20.3,20.3,0,0,1,8.81-6.88,13.12,13.12,0,0,1,7.27,0c2.2.67,3.31,2,3.33,3.9,0,1.14-.06,2-.11,2.52a6,6,0,0,1-1,2.42c.52.19,1,.37,1.55.53a1.36,1.36,0,0,1,1,.93c0,.63-.55,2-1.72,4.13a7.58,7.58,0,0,0-1,1.15,4.7,4.7,0,0,1,1.7.93,3.06,3.06,0,0,1,.18.68,9.55,9.55,0,0,1-1.09,3.9C107,58.53,108.33,58.9,109.14,59.93ZM108,61.12l-.09,0a1.16,1.16,0,0,0-.67-1.2,2.09,2.09,0,0,0-1.53-.17c-.23.06-.55.17-.95.32a8.57,8.57,0,0,1-1,.33,1.75,1.75,0,0,1-1.28-.07c-.26-.1-.29-.3-.09-.62a8.86,8.86,0,0,0,2.25-4q.17-.69-.21-.87a4.48,4.48,0,0,0-1.86-.05,12.66,12.66,0,0,0-1.43.45q-.85.23-1.2-.33a.6.6,0,0,1,.18-.69,17.26,17.26,0,0,0,3.06-2,20.84,20.84,0,0,0,1.59-1.93,3.44,3.44,0,0,0,.66-1.94,1,1,0,0,0-1.17-.59,12.45,12.45,0,0,1-1.61,0q-.72-.06-.78-.45a10.22,10.22,0,0,0,1.93-2.67c.49-2.16.33-3.74-.48-4.71-.6-.71-2-1.17-4.1-1.36a7.69,7.69,0,0,0-3,.21c-2.56.68-5.23,2.61-8,5.8l-.14.28c-.22.22-.46.48-.72.77a.91.91,0,0,1-1.08.22c-.53-.22-1.44.09-2.73,1-2.09,2.06-3.07,3.78-3,5.16a2.15,2.15,0,0,0,1.55,2.14,3.5,3.5,0,0,0,1.84,0A3.3,3.3,0,0,1,86,54a.67.67,0,0,1,.25.42c0,.25-.13.61-.52,1.08a2.77,2.77,0,0,0-.63,1,1.88,1.88,0,0,0,.49,1.88,3.6,3.6,0,0,0,1.44.4c.56,0,.84.32.86.8s-.28.78-.84,1a5.4,5.4,0,0,0-1.36.72A2.58,2.58,0,0,0,85,64.15a2.08,2.08,0,0,0,2.15,1.48,3.49,3.49,0,0,1,1.79.3.61.61,0,0,1-.07.75,3.9,3.9,0,0,0-1,2c-.3,1.55.14,2.58,1.31,3.11a.52.52,0,0,1,.13.77c-.35.1-.87.28-1.55.53a3.65,3.65,0,0,0-1.86,2.56q-.61,2.94,1,4c.17.28.6.36,1.31.27a1.88,1.88,0,0,1,1.48.22c.17.33,0,.7-.37,1.12s-.64.73-.65,1a1.23,1.23,0,0,0,.15.93c.15.28.48.42,1,.4s.77.2.78.63a2.65,2.65,0,0,1-1.16.9,2.65,2.65,0,0,0-1.16.9,2.54,2.54,0,0,0,.09,2.73A3.21,3.21,0,0,0,91.62,90l.11.13c.22.26.19.57-.1.92s-.55.7-.78,1a3.48,3.48,0,0,0-.34,1.56c.18,3,1.3,4.85,3.36,5.67a9.82,9.82,0,0,0,6.36.32,13.06,13.06,0,0,0,7.14-5A8.38,8.38,0,0,0,109.31,88c-.06-.42-.12-.86-.19-1.33a3.54,3.54,0,0,1-.27-1.94c1.24-.85,1.79-1.8,1.65-2.84a3.15,3.15,0,0,0-1.58.24c-.79.26-1.36.25-1.7,0a.6.6,0,0,1-.09-.63,12.52,12.52,0,0,0,2.3-5.26,1.49,1.49,0,0,0-.46-2c-.28-.26-1-.18-2.18.23a3.06,3.06,0,0,1-1.21-.09.45.45,0,0,1-.24-.34.6.6,0,0,1,.12-.44,8.22,8.22,0,0,0,2.09-3.68c.15-1.49.09-2.36-.19-2.61a1.81,1.81,0,0,0-1.41-.4c-.73,0-1.18-.17-1.34-.5,0-.11.16-.34.53-.71A7.67,7.67,0,0,0,108,61.12Zm-7.2-6.29-.2-.11v.08Z"/><path class="cls-1" d="M176.29,49.07a4.08,4.08,0,0,1-3.54,3.13l-1.33.19c.36,1.49.44,2.41.23,2.76a3.44,3.44,0,0,1-2.79,1.05l-1.55-.32a5,5,0,0,1-1.19,1.77A14.69,14.69,0,0,1,171.51,59a4,4,0,0,1,2.36,3.72,7.8,7.8,0,0,1-1.1,1.75,9.7,9.7,0,0,1,2.32,1.18,3.69,3.69,0,0,1,.73,4.75,12.89,12.89,0,0,1-2.07,2.84,6.4,6.4,0,0,1,4.2,4.1,11.74,11.74,0,0,1,.14,2.93,8.84,8.84,0,0,1-4.66,5.12q-4.62,1.17-6.55-.91a5.66,5.66,0,0,1-4.09,2.18,2.92,2.92,0,0,1-2.12-1.17c-1.61.86-2.9,1.09-3.88.67a4.3,4.3,0,0,1-3.42-4.42c-.09-3.13.73-5.57,2.45-7.3A4,4,0,0,1,151.76,72c-.4-1-.18-2.55.68-4.67-3,1.17-5.07,1.25-6.32.2a16.82,16.82,0,0,1-4.93,2.32,5.24,5.24,0,0,1-2.05,0c0,1-.67,2.26-2,3.87,1.3.43,2,1.81,2,4.11a5.27,5.27,0,0,1-.56,2.13,19.93,19.93,0,0,0-1,2.07c3.08.65,4.76,2,5,3.9.16,1.42-.72,3-2.62,4.8-2.19,1.3-3.92,1.72-5.21,1.25a3.72,3.72,0,0,1-1.54-1.19c-1.06,1-2,1.39-2.75,1.24a2.63,2.63,0,0,1-2.13-2.26,8.51,8.51,0,0,1-5,3.88,4.82,4.82,0,0,1-4.15-.74,4.2,4.2,0,0,1-1.79-3.47q-.12-2.22,1.93-5.45a2.34,2.34,0,0,1-2.59-1.39c0-.64.49-1.89,1.55-3.75-2.63.36-4.37-.39-5.22-2.27-.86-2.74.41-5.86,3.86-9.31a1.92,1.92,0,0,1-1.78-.86c-.41-.59-.57-1-.48-1.25a8.57,8.57,0,0,1,2-2.88,3.44,3.44,0,0,1-4-1.45,2.64,2.64,0,0,1-.44-1.18,8.72,8.72,0,0,1,1-4.36,19.53,19.53,0,0,1,2.26-3.6,1.69,1.69,0,0,1-2-1A5.62,5.62,0,0,1,115,47l-1-.24a4,4,0,0,1-3-3.37,5.08,5.08,0,0,1,0-1c.62-2.67,2.75-5.17,6.41-7.46a2,2,0,0,1,2.41,0c1.86-2.4,3.77-3.74,5.72-4a3,3,0,0,1,3,2.33A3,3,0,0,0,129,33a3.48,3.48,0,0,1,.71-.27c2.71-.57,4.49-.6,5.35-.14a11,11,0,0,1,7-5.6c1.81-.34,3-.06,3.6.82a6,6,0,0,0,.54,2.58c2.56-1.41,4.57-1.66,6-.76l.52.54a11.47,11.47,0,0,1,6.48-3.56,7.94,7.94,0,0,1,3.24.12,3.48,3.48,0,0,1,2.21,3.09,3.14,3.14,0,0,1-.33,1.56c.24,0,.61-.06,1.1-.09a31.49,31.49,0,0,1,4.22.09,4.37,4.37,0,0,1,3.28,2c.64,1.13.68,2.05.13,2.76l-.86.68q2.78,1.6,2.94,3.81a3,3,0,0,1-.82,2.34,4.87,4.87,0,0,1,2.3,3.9A5.44,5.44,0,0,1,176.29,49.07Zm-.66-2.61a3.36,3.36,0,0,0-3.56-2.68.61.61,0,0,1-.52-.8,1.34,1.34,0,0,1,1.4-.68l.85-.68a1.54,1.54,0,0,0,.35-1.4A5.47,5.47,0,0,0,171,37.8a4.86,4.86,0,0,1-1.58-.41c-.21-.29-.11-.59.29-.92a13.37,13.37,0,0,0,2.61-1.57c.15-.44-.14-1-.86-1.63a11.08,11.08,0,0,0-6.64-.52c-.06,0-.51.18-1.33.52-.53.24-.93.27-1.19.07a.68.68,0,0,1-.25-.8l1-1.56a2.44,2.44,0,0,0,.51-1.55c-.07-.84-.64-1.36-1.7-1.57a6.87,6.87,0,0,0-6.22,1.49,8,8,0,0,0-1.86,1.79,5.48,5.48,0,0,1-1.16,1.28c-.24,0-.5-.12-.79-.5-.15-1-.63-1.49-1.43-1.51a5.56,5.56,0,0,0-4.06,1.77c-.52.31-.93.37-1.23.19a1.24,1.24,0,0,1-.51-1c.11-1.84-.1-3-.64-3.4a2.34,2.34,0,0,0-1.3-.08c-3,1-5,2.54-6.06,4.61a3.34,3.34,0,0,1-1,2,.94.94,0,0,1-.88-.38,3.84,3.84,0,0,0-.52-.54c-1-.49-2.35-.35-4.1.45a4.31,4.31,0,0,0-.77.56,1.47,1.47,0,0,1-.87.42c-.72.16-1.18-.05-1.37-.61l-.57-1.64a1.7,1.7,0,0,0-1.16-.45c-1.54.07-3.11,1.17-4.69,3.3-.07.43-.25.68-.55.75a1.45,1.45,0,0,1-.87-.29,1.42,1.42,0,0,0-.87-.28c-3.37,1.63-5.45,3.85-6.25,6.61a2.94,2.94,0,0,0,1.5,2.94,3,3,0,0,0,1.49.17,3.22,3.22,0,0,1,1.4.11,1.52,1.52,0,0,1,.48.93,18.52,18.52,0,0,0-1.91,2.86q0,.57.27.66l1.68-.39a1.41,1.41,0,0,1,1.51.29c.26.15.2.41-.18.76A15,15,0,0,0,113.84,57c-.5,1.73-.54,2.95-.14,3.66a1.94,1.94,0,0,0,1.72.71,18.19,18.19,0,0,1,3.71-.79c.43.06.63.22.61.5a8.7,8.7,0,0,0-1.09,1L117,63.84a3.57,3.57,0,0,0-1.06,1.87,2,2,0,0,0,1.77.46,14.69,14.69,0,0,1,2-.14c.32.14.47.34.44.62a1.54,1.54,0,0,1-1.34.79,11.27,11.27,0,0,0-3,3.13q-2.15,4.14-1.51,6.08.84,1.56,3.3,1.29a3.12,3.12,0,0,0,1.54-.53,1.57,1.57,0,0,1,1.41-.17q.2.2,0,.72c-.49.76-1.21,1.92-2.12,3.48-.27.66-.34,1.07-.19,1.25,0,.06,0,.1.1.14.32.19,1,0,2.17-.43h.27a5.22,5.22,0,0,1,.81.78,18.54,18.54,0,0,0-2.65,4.8c-.67,2-.17,3.53,1.48,4.47a4,4,0,0,0,2.91,0,7.84,7.84,0,0,0,4.94-4.82l0-.33a.73.73,0,0,1,.54-.6,1,1,0,0,1,1,0c.21.29.19.82-.07,1.6,0,1.33.21,2.17.66,2.51a2,2,0,0,0,1.67-.72,4.35,4.35,0,0,0,.61-.84c.24-.41.47-.64.7-.69a1.15,1.15,0,0,1,.55.12c.63,1.37,1.49,2,2.59,1.86,1.52-.05,2.93-1,4.25-2.8a9.28,9.28,0,0,0,.49-1.86c-.21-1.34-1.25-2.2-3.12-2.57a9.85,9.85,0,0,1-2.45-.61,1.15,1.15,0,0,1,.21-1.17c.31-.43.61-.84.92-1.23a4.6,4.6,0,0,0,.42-4.81,2,2,0,0,0-1.25-.86c-.68-.23-1.05-.59-1.11-1.06a9.53,9.53,0,0,0,1.79-1.49,2.52,2.52,0,0,0,.67-2.78,2.35,2.35,0,0,0-.53-.69c-.21-.22-.18-.47.09-.74a.85.85,0,0,1,.34-.15,1.63,1.63,0,0,1,1.12.33l.86.55a5.12,5.12,0,0,0,1.79,0,11.36,11.36,0,0,0,4.38-2.45,1.55,1.55,0,0,1,.6-.27q.34-.08.9.51c.37.38.64.58.82.6q2.52.16,6.34-1.87a1.28,1.28,0,0,1,1.1.29,1.17,1.17,0,0,1-.1.81,7.93,7.93,0,0,0-2.19,4,2.41,2.41,0,0,0,1.26,2.81,3.59,3.59,0,0,0,3,0c.17-.14.56-.07,1.18.19a.45.45,0,0,1,.06.63,19.51,19.51,0,0,0-2.42,2.49,8,8,0,0,0-1.34,5.19c.16,2.1,1,3.33,2.57,3.7a3.32,3.32,0,0,0,2.64-.77,2.44,2.44,0,0,0,.71-.8c.31-.45.64-.65,1-.61s.47.34.52.83a2.32,2.32,0,0,0,.17.89,1,1,0,0,0,.91.41,2.63,2.63,0,0,0,1.83-1.06c.53-.64,1-1.26,1.5-1.87a1.09,1.09,0,0,1,1.18.53,2.75,2.75,0,0,0,.8,1.07,4.86,4.86,0,0,0,5.34,0A7.43,7.43,0,0,0,176.94,79c-.15-1.94-.79-3.26-1.9-3.95-.2-.34-.74-.57-1.6-.69s-1.37-.42-1.53-.93a2.1,2.1,0,0,1,.79-1.15Q175,69.55,174.83,68a2.11,2.11,0,0,0-.25-.84,2.44,2.44,0,0,0-1.74-1.82,3.06,3.06,0,0,1-2.08-.33A8.56,8.56,0,0,0,172,62.82a2.4,2.4,0,0,0-.83-2.43,9.67,9.67,0,0,0-5.41-1.57,5.64,5.64,0,0,1-2.71-.21c-.16-.5,0-.88.62-1.13a14.39,14.39,0,0,0,1.45-.79,2,2,0,0,0,.67-1.14,3,3,0,0,1,.49-1.11,1.18,1.18,0,0,1,1.26.12c1.7.28,2.8.11,3.29-.49.06-.65-.47-1.36-1.62-2.15q-.3-.27.21-.75a1.19,1.19,0,0,1,1.14-.32l1.18.14a5.54,5.54,0,0,0,1.94-.6C175,49.73,175.66,48.42,175.63,46.46Zm-19.51,3.33c-.16.19-.76.29-1.78.31a5,5,0,0,0-3.71,2.73,2.17,2.17,0,0,0-.36,1.34,1.48,1.48,0,0,1-.64,1.32,5.36,5.36,0,0,0-1.41-.59,4,4,0,0,0-1.82-.1,9.61,9.61,0,0,0-4.33,2.59,1.38,1.38,0,0,1-1.35-.45,1.71,1.71,0,0,0-1.2-.61,3.25,3.25,0,0,0-2,.19,8.54,8.54,0,0,0-2.4,1.13,1.86,1.86,0,0,1-.74-.13c-.37-.1-.5-.39-.37-.84a12.51,12.51,0,0,0,1.63-1.62c1.63-2.09,2.37-3.86,2.21-5.33a4,4,0,0,0-.44-1.43,2.4,2.4,0,0,0-1.31-1.14c-.44-.09-.89-.18-1.35-.24a.93.93,0,0,1-.86-.71c-.08-.14.11-.37.56-.67a9.35,9.35,0,0,0,2.78-.49c2.11-1.27,3.73-2.3,4.87-3.11q1.34-1.21,1.86-.51a5.49,5.49,0,0,0,.33,2.17.77.77,0,0,0,.77.42,13.86,13.86,0,0,0,3.25-2.12c.41-.13.68-.15.81-.07s.25.6.34,1.54l1,.14a4.25,4.25,0,0,0,1.19-.85,2.79,2.79,0,0,1,1.2-.77,1.41,1.41,0,0,1,.5,0,1.49,1.49,0,0,1,.65.53q.19.2-.24.6a6.79,6.79,0,0,1-1.45.89A7.2,7.2,0,0,0,151,46.05c.08,1.37,1.56,2.33,4.44,2.9C155.93,49.19,156.15,49.47,156.12,49.79Zm-3.24-.71a2.18,2.18,0,0,1-.53-.27,1.84,1.84,0,0,0-.52-.27q-2.34-1.57-1.64-3.62a2.41,2.41,0,0,1-2-1.07,7.54,7.54,0,0,1-3.57,1.54A2.35,2.35,0,0,1,142.7,43q-1.71,1.13-5.2,3.34a4.55,4.55,0,0,1,1.52,3,8.27,8.27,0,0,1-2,5.91,5.42,5.42,0,0,1,4.41.65c-.12,0,.14-.14.76-.47a10.6,10.6,0,0,1,3.89-1.7,4.53,4.53,0,0,1,2.73.21C149.18,51.92,150.52,50.29,152.88,49.08Zm.72-6.6-.2-.12,0,.16Z"/><path class="cls-1" d="M247.26,45.06c.39,2.27-.81,4.3-3.57,6.12a5,5,0,0,1,2.37,2.94,1.76,1.76,0,0,1-.48,1,3.67,3.67,0,0,1-2.07,1c.3.31.69.77,1.18,1.39a7.68,7.68,0,0,1,1.92,4.15,3.49,3.49,0,0,1-.33,1.59,5.9,5.9,0,0,1-5.94,3l-.88-.05a6.41,6.41,0,0,1,0,2.22A3.69,3.69,0,0,1,236,70.79l-1,0a7.9,7.9,0,0,1-5.1,2.69l-.17.08a4.5,4.5,0,0,1-.54,2.39c-1.22,2-3.5,3.31-6.84,4.1a8.3,8.3,0,0,1-7.5-2.15,7.46,7.46,0,0,1-5,2.16,4.43,4.43,0,0,1-3.92-1.47,8,8,0,0,1-4.16,2.22,2.51,2.51,0,0,1-1.18-.16,8.39,8.39,0,0,1-1.49-.76,17.29,17.29,0,0,1-7.41,3,7,7,0,0,1-4.56-1,4.22,4.22,0,0,1-2.21-3.44,5.87,5.87,0,0,1,1.4-3.74,2.52,2.52,0,0,1-.81-2.75,9.41,9.41,0,0,1,.83-2.08,9,9,0,0,1-1.06.05c-1.54-.12-2.47-.76-2.79-1.94,0-.95.74-2.76,2.27-5.44-.73-.27-1.19-.45-1.37-.54a1.68,1.68,0,0,1-.88-1.07c-.13-.93.49-3,1.88-6.1-2.34-.23-3.63-1.06-3.86-2.51a4,4,0,0,1-.26-1.16,31.93,31.93,0,0,1,1.25-5.07,18.83,18.83,0,0,1,2-3,3,3,0,0,1-2.34-1q-.45-1.21,1.9-4.28l.57-.55a10.44,10.44,0,0,1-2.36-1.2c-1.35-1-1.83-2.59-1.43-4.65a12.63,12.63,0,0,1,2.67-4.94,11.78,11.78,0,0,1,5.51-2.8l1.11.11a8.27,8.27,0,0,1,5.17-2.64,3.84,3.84,0,0,1,3.37.92,12.52,12.52,0,0,1,6.88-.26l.84.24a17.26,17.26,0,0,1,7.33-4.42,4.17,4.17,0,0,1,4.5,2,4,4,0,0,1,.32,1l.18.06a8.88,8.88,0,0,1,2-.37,6.9,6.9,0,0,1,5.76,1.86c.32.56.48.81.48.76l2.83-.16a5.24,5.24,0,0,1,2.58.58c1,.27,1.56,1.25,1.73,2.93l-.24,1.28a24.24,24.24,0,0,1,4.54-.75,6.84,6.84,0,0,1,4.4,1.11,3.2,3.2,0,0,1,1.34,3.6,21.91,21.91,0,0,0-.59,2.55l1.1.68c1.28.8,1.83,1.71,1.67,2.72a3.07,3.07,0,0,1-1.33,1.7,6.13,6.13,0,0,1,2.3,2.71C246.54,42.89,246.89,44,247.26,45.06Zm-1.25.2a14.82,14.82,0,0,0-.95-3.46,3.65,3.65,0,0,0-1.56-1.46,8.65,8.65,0,0,1-1.91-1.13c-.19-.41-.19-.68,0-.79l1.8-.77a1.91,1.91,0,0,0,.6-1.6c-.31-.52-1.22-.81-2.73-.86a1.39,1.39,0,0,1-.74-.93,11.07,11.07,0,0,1,.6-2,6.51,6.51,0,0,0,.5-2.11,2.44,2.44,0,0,0-.85-1.8,4.94,4.94,0,0,0-2.75-.61,18.07,18.07,0,0,0-4.71,1.15,5.73,5.73,0,0,0-1.3.78,2.3,2.3,0,0,1-1.67.56.84.84,0,0,1-.57-.93c1.1-1.69,1.65-2.9,1.63-3.64a2.42,2.42,0,0,0-.4-1.25,8.73,8.73,0,0,0-4-.42,14.54,14.54,0,0,0-1.61.48,1.38,1.38,0,0,1-1.54-.14c-.13-.19-.08-.48.16-.85a1.12,1.12,0,0,0,.24-.87c-.58-1-2.28-1.34-5.08-1a13.29,13.29,0,0,0-1.45.45,4.59,4.59,0,0,1-1.64.32c-.43-.23-.6-.51-.49-.84a2.53,2.53,0,0,0,.23-1.12,1.77,1.77,0,0,0-.41-1.08,2.64,2.64,0,0,0-1.32-.7c-2.09-.1-4.5,1.14-7.18,3.76a3.51,3.51,0,0,1-.78,1h-.82c-.78-.83-2.51-1.15-5.2-.94A17.66,17.66,0,0,1,195.69,24a.61.61,0,0,1-.32-.69,5.61,5.61,0,0,0,0-.79c-.26-.35-1-.4-2.3-.15a8.36,8.36,0,0,0-3,2.31,7.35,7.35,0,0,1-2.38.2c-2.88.92-4.71,2.34-5.49,4.24-.89,2.07-1.28,3.42-1.17,4,0,1.18.76,2.13,2.39,2.88a8.07,8.07,0,0,1,2.61,1c.14.2,0,.51-.39.92q-3,1.64-3.38,3.53c.27.39.85.54,1.75.45a2.54,2.54,0,0,1,1.83.29c.21.4,0,.79-.47,1.17a6.08,6.08,0,0,0-1.13,1q-2.66,4.07-2.41,7.46c.07.94.7,1.58,1.88,1.9a1.49,1.49,0,0,0,1.17-.14,4.79,4.79,0,0,1,1.16-.46,1.32,1.32,0,0,1,1,.43.82.82,0,0,1,0,.55,10.26,10.26,0,0,0-2.86,5.12c-.15,1.24,0,1.94.32,2.11,1.29-.22,2-.33,2-.33q.47.26.48.57a24.89,24.89,0,0,0-2.09,3.08,4.82,4.82,0,0,0-.9,3.58c.14.24.59.42,1.37.54a3.69,3.69,0,0,0,1.66-.29c.75-.19,1.28-.13,1.6.21.08.3.09.49,0,.55-1.32,1.48-1.9,2.83-1.75,4a1.33,1.33,0,0,0,.51,1,1.07,1.07,0,0,1,.42,1.06,4.37,4.37,0,0,0-1.69,3.39,3.19,3.19,0,0,0,2.22,3.06c.78.33,2.34.22,4.7-.32,2.67-1,4.52-2.19,5.54-3.62a1.36,1.36,0,0,1,1.16.36c0,.26.07.65.16,1.17.07.31.4.44,1,.38a8.75,8.75,0,0,0,3.73-2,2,2,0,0,0,.49-.69A.51.51,0,0,1,206,77c.41,0,.69.31.83.88s.43.88.84,1c.6.32,1.81.21,3.65-.32a7.9,7.9,0,0,0,2.38-1.54c0-.32.08-.65.13-1s.26-.54.67-.57.74.63,1.35,1.8,1.86,1.79,3.78,1.86a9.29,9.29,0,0,0,8.33-3.78c.17-.46.33-.92.49-1.37a1.1,1.1,0,0,0,0-.87,7.75,7.75,0,0,1-.21-.94c.05-.37.28-.52.69-.44a3.65,3.65,0,0,0,3.49-.66,1.45,1.45,0,0,0,.92-1.55c.06-.16.38-.25,1-.28a3.56,3.56,0,0,0,2.94-.29,2.1,2.1,0,0,0,1-2.26c-.12-.28-.24-.57-.37-.85a.59.59,0,0,1,.07-.8,12.78,12.78,0,0,0,2.91-.11,4.6,4.6,0,0,0,4.28-2.51,3.87,3.87,0,0,0,.16-1.11c0-1.32-1.38-3-4.08-5a1.76,1.76,0,0,1,0-.79,5.08,5.08,0,0,1,1.33-.44l1.33-.4a1.16,1.16,0,0,0,.87-.78c.12-.21,0-.5-.28-.86a3.33,3.33,0,0,0-1.53-.9,4,4,0,0,1-1.53-.82c-.12-.21-.07-.42.17-.64C244.53,48.59,246,46.84,246,45.26Zm-20,4.17c0,.11-.31.39-.95.85A11.64,11.64,0,0,0,222,54.12c0,.58.12.92.3,1,.25.35.72.47,1.4.35a2.76,2.76,0,0,1,1.42,0,1.12,1.12,0,0,1,.6.64.51.51,0,0,1-.33.65,12.34,12.34,0,0,0-2.3.46,5.07,5.07,0,0,0-2.21,2.68,6.44,6.44,0,0,0,.49,1.24q1.37,1.09,1.38,1.41c-.22.38-.48.51-.78.37a8.48,8.48,0,0,0-2.44-1.18,5.32,5.32,0,0,0-5,1.79,2.12,2.12,0,0,0-.44,2c.19.25.47.65.85,1.2a1.06,1.06,0,0,1-.24.61c-.16.25-.34.33-.52.24a9.65,9.65,0,0,0-2.4-2.42c-.73-.58-2-.45-3.69.39-1,.73-1.75,1-2.17.83a.54.54,0,0,1-.21-.69l.32-.59q.15-.5-.87-1.5a4,4,0,0,0-1.53-.34c-.59-.1-.85-.42-.76-1a2.86,2.86,0,0,1,1.28-1,2.63,2.63,0,0,0,1.31-1.23c.18-.47.21-.75.09-.85a3,3,0,0,0-2.21-1.3h-1.47a1.42,1.42,0,0,1-1.13-.45.42.42,0,0,1,.05-.56c.47-.15,1.17-.4,2.1-.76,2.1-.73,3.29-2,3.55-3.82.14-.86-.41-1.6-1.63-2.23q-.73-.16-2.1-.6a.73.73,0,0,1-.2-.45,1.63,1.63,0,0,1,.44-.92,1.29,1.29,0,0,0,.35-1.06c0-.79-1-1.63-2.75-2.52a.89.89,0,0,1,0-.55,15.27,15.27,0,0,0,2-1.15,7.8,7.8,0,0,0,1.79-3.73,3.19,3.19,0,0,0-.45-1.71,10.5,10.5,0,0,1-2-1.07.37.37,0,0,1,0-.48l1.51-.7a16.2,16.2,0,0,0,2.77-2.79,1.45,1.45,0,0,1,1.08-.25c.13.31.37.79.71,1.45.32.39,1,.49,2.19.29a20,20,0,0,0,3.92-1.9,1,1,0,0,1,1.13.86,7.18,7.18,0,0,0,.42,1.48,4.38,4.38,0,0,0,4,3,22,22,0,0,1,2.73.3c.31.35.24,1-.2,2.07s-.45,1.75,0,2.14a14.07,14.07,0,0,1,3.33.11,3.83,3.83,0,0,1,.3.7l-.17.32a19.31,19.31,0,0,0-1.73,2.09,5.28,5.28,0,0,0-.9,2.28,1.23,1.23,0,0,0,.94,1.28l1.34.12A.82.82,0,0,1,226,49.43Zm-2.23.06A3,3,0,0,1,221.57,47a9.59,9.59,0,0,1,2-4.09,4.33,4.33,0,0,1-2.55-.79c-.75-.74-.83-2-.23-3.63-4.26-1-6.59-2.62-7-4.81q-1,.46-3,1.35a3.91,3.91,0,0,1-4.31-1l-2.25,2.26,1.06,1.1a3.11,3.11,0,0,0,.4.75l0,1.27a8.24,8.24,0,0,1-2.91,4.88,4.59,4.59,0,0,1,1.62,1.51c.37.34.42,1.31.15,2.92,1.78.9,2.84,1.89,3.2,3a1.55,1.55,0,0,1,0,.71c.13,1.31-1.05,2.84-3.51,4.6,1.76.74,2.69,1.58,2.8,2.52s-.59,1.85-1.9,2.87c1.28.57,2,1.3,2.15,2.18,0,0,.23-.15.7-.29h-.09a5,5,0,0,1,4.87.07,5.9,5.9,0,0,1,.47-1.31,7.19,7.19,0,0,1,6-2.59l.27.06c-.23-1.2.57-2.66,2.41-4.36,0-.06,0-.08-.09-.08a2.49,2.49,0,0,1-1.07-2.3A11.93,11.93,0,0,1,223.81,49.49Zm-9.33-17.11V32.3h-.18Zm10-8.21a1.45,1.45,0,0,0-.28-.14C224.26,24.18,224.36,24.23,224.48,24.17Z"/><path class="cls-1" d="M332,57.06c.07.8-.43,1.72-1.5,2.77q1.55,2.31-.57,4.87c-.95,1.11-2.41,1.4-4.39.89a1.89,1.89,0,0,1-.73,2,11.61,11.61,0,0,1-1.53.56,2.47,2.47,0,0,1,.21,2.64c-.56.53-2.15,1.19-4.77,2a6.93,6.93,0,0,1-2.89-.09q-1,3.08-3.13,3.3a17,17,0,0,1-7.28.57,4.25,4.25,0,0,1-2.07-.85,10,10,0,0,1-1.65,2.11,15.49,15.49,0,0,1-8.25,1.83,3.23,3.23,0,0,1-.6-.11,3.16,3.16,0,0,1-2.83-1.63,19.81,19.81,0,0,1-.83-1.94c-5.23-.16-6.69-.14-4.36,0a4.54,4.54,0,0,1-3.64-1.62l-.85-1.22A12.48,12.48,0,0,1,275,74.19,7.75,7.75,0,0,1,270.75,73a4.4,4.4,0,0,1-1.82-3.48,3.08,3.08,0,0,1,.36-1.41c.14-.36.29-.73.44-1.09-1.23-.17-3-.53-5.27-1.06-.59-.1-1.26-.7-2-1.8a1.92,1.92,0,0,1,.18-1.57l-.09-.08a4.57,4.57,0,0,1-4.33-.85,3.66,3.66,0,0,1-1.43-3.36,7.82,7.82,0,0,1,1.05-3h-1.34a5.47,5.47,0,0,1-5.75-5.69,10.18,10.18,0,0,1,1.91-5.89,3.74,3.74,0,0,1-.92-2.52,8,8,0,0,1,1.94-4.62,4.05,4.05,0,0,1-2.38-3.29c-.33-2.84.23-6.31,1.72-10.4.9-1.59,2.7-2.33,5.39-2.2q.45-2.61.54-2.85a3.59,3.59,0,0,1,1.78-2.22,6.07,6.07,0,0,1,3.18-.64,13.15,13.15,0,0,1,2.6-7.19,6.82,6.82,0,0,1,5.95-2.08,9,9,0,0,1,4.34,2.29c1.14-2.93,2.93-4.58,5.36-4.93A12.75,12.75,0,0,1,290,4c.45-.62.91-1.26,1.4-1.92A3.48,3.48,0,0,1,293.27.77a3.77,3.77,0,0,1,3.63.41,21.27,21.27,0,0,1,2.16,2.49l2.47-1.4A4.44,4.44,0,0,1,304,1.58a3.92,3.92,0,0,1,1.48.41c.05.06.71.89,2,2.51a3.55,3.55,0,0,1,3.58-1,7.18,7.18,0,0,1,3.13,3.1,3.66,3.66,0,0,1,1.44-1,3.87,3.87,0,0,1,1.12-.07,11.54,11.54,0,0,1,4.28,2c.72.49,1.55,2,2.47,4.43a1.15,1.15,0,0,0,.15.57,9.56,9.56,0,0,1,6,1.46c1.29,1,1.91,2,1.86,3q-.08,2.68-2.22,3.18c2.35,1.88,3.42,4.89,3.23,9a9.49,9.49,0,0,1-4.76,7.21,12.35,12.35,0,0,1-6.94,1.87,11.14,11.14,0,0,1-1.8-.32,14.49,14.49,0,0,1-7.8-4,12.61,12.61,0,0,1-3.7-7.4c-3.11.1-5.1-.6-6-2.13a3,3,0,0,1-.07-3.49l0-.31c-2,.14-3,.22-3,.22a10,10,0,0,0-1.54-.63l-.18-.09a5,5,0,0,1-3.7,4.65,4.53,4.53,0,0,1-5-.46l-1.71-1.33A6.83,6.83,0,0,1,283.49,26a9,9,0,0,1,.93,3.67,4,4,0,0,1-.86,2.51,5.38,5.38,0,0,1-3.3,1.72q1.2,4.47-.92,7.5c3.63,1.94,5.31,4.49,5.07,7.59,0,.95-.69,1.83-2,2.63q3.27,1.85,3,4.14a10.7,10.7,0,0,1,3-.28,6.11,6.11,0,0,1,4,1.42,7,7,0,0,1,2.48,3.31q2.47-2.66,4.95-2.11a3.41,3.41,0,0,1,2,1.15c1.79-2.1,3.55-3.1,5.26-3l.1-.07a8,8,0,0,1-.11-1.75,6.61,6.61,0,0,1,3.64-6.07c2.63-1.34,6.35-2,11.14-1.92,3,.44,5.05,1.42,6,2.9a3.66,3.66,0,0,1,.22,3.91c.35.14.87.38,1.57.72A3.42,3.42,0,0,1,332,57.06Zm-2.31,4.43a2.07,2.07,0,0,0-1.09-1.11c-.64-.35-.94-.77-.91-1.24a.91.91,0,0,1,.72-.8c.45-.16.89-.33,1.32-.5.49-.37.51-1.11,0-2.21a1.59,1.59,0,0,0-1.12-.6,7.71,7.71,0,0,0-1.26.07,4.81,4.81,0,0,1-1.52,0,1.54,1.54,0,0,1-.47-1.16,4.68,4.68,0,0,1,.43-1.3,4.3,4.3,0,0,0,.44-1.39,3.22,3.22,0,0,0-1.73-2.79c-1.16-.53-3.59-.66-7.25-.34-2.06.41-3.2.66-3.45.75a6.76,6.76,0,0,0-2.94,1.76c-.32.41-.76,1-1.33,1.82-.91,1.9-.91,3.45,0,4.63.21.55.11.89-.31,1a30.27,30.27,0,0,0-3-.61c-1.92.6-3,2.07-3.18,4.38q-.11.39-.9.42c-.12,0-.38-.24-.77-.68,0-.69-.52-1.28-1.45-1.76a2.58,2.58,0,0,0-2.13,0,4.78,4.78,0,0,0-2.27,1.74L293.83,64c-.35,0-.58,0-.7-.2a4.47,4.47,0,0,1,.58-1.55,3.69,3.69,0,0,0-.72-2.81c.05,0,0-.08-.17-.25h-.09c-.17-.22-.23-.33-.17-.33a6.87,6.87,0,0,0-4.21-2,6.39,6.39,0,0,0-1.07,0,4.07,4.07,0,0,0-1.61.85,2.67,2.67,0,0,1-1.79.69,1,1,0,0,1-.7-.74,2.38,2.38,0,0,1,.65-1.48c.19-.58-.09-1.32-.85-2.25A3.65,3.65,0,0,0,281,52.89a5.81,5.81,0,0,1-2.13-.7.78.78,0,0,1-.25-.79c.24-.42.87-.65,1.88-.71a2.26,2.26,0,0,0,2-.85c.61-.66.57-1.83-.12-3.49a6.45,6.45,0,0,0-4.43-3.6,4.52,4.52,0,0,1-1.34-.66.65.65,0,0,1-.09-.32.61.61,0,0,0,.1-.24Q279.53,40.25,279,36a9,9,0,0,0-1.77-3.29,1,1,0,0,1,.28-.86l1.54,0a2.65,2.65,0,0,0,1.45.75,1.74,1.74,0,0,0,1.63-.43,4,4,0,0,0,.09-4.82,6.48,6.48,0,0,1-1.35-1.63,1.17,1.17,0,0,1,.79-.76,14.1,14.1,0,0,1,1.66-.59,1.38,1.38,0,0,0,1.07-1.27,11.3,11.3,0,0,1,1-2.94,1.69,1.69,0,0,1,1.1.12,2.32,2.32,0,0,1,.54.81q2.32,2.63,4.51,2.72a3.4,3.4,0,0,0,3-1.58c.83-1.11.93-2.58.31-4.43a.84.84,0,0,1,.3-.95,1.24,1.24,0,0,1,.84-.35c.37,0,.74.4,1.12,1.16a3.4,3.4,0,0,0,1,1.4c.78.57,2,.61,3.67.13l1.31-.71a1.84,1.84,0,0,1,1.49-.3.76.76,0,0,1,.52.9,1,1,0,0,1-.77.9,2.71,2.71,0,0,0-1.3,3,2.73,2.73,0,0,0,2.39,2.37,5.05,5.05,0,0,0,1.88-.11,6.8,6.8,0,0,1,1.6-.2c.3.12.5.46.6,1-.17,1.26.57,3.34,2.2,6.27,2,2.9,5.07,4.46,9.23,4.73,4.11,0,6.92-1.61,8.44-4.73a8.24,8.24,0,0,0,1.14-3.85,15.4,15.4,0,0,0-.63-5,5.79,5.79,0,0,0-1.53-2.14,5.71,5.71,0,0,1-1.53-2.14c0-.32.21-.53.59-.66,1.06-.26,1.62-.39,1.68-.38a1.62,1.62,0,0,0,1.16-1q-.62-2.06-4.45-3a3,3,0,0,0-2.8.45c-.38.12-.71,0-1-.49a6.59,6.59,0,0,0-.82-4C319.36,8,317.64,7,316,7a8.44,8.44,0,0,0-.77,2.48c-.45.44-.86.59-1.22.45a1.51,1.51,0,0,1-1-1.11c-.13-.53-.28-1.07-.44-1.62-1-1.71-2-2.55-2.88-2.5a3.62,3.62,0,0,0-1,1.31A1.66,1.66,0,0,1,307,7,1.55,1.55,0,0,1,306,6.38c-.49-1-1-2-1.48-3a1.36,1.36,0,0,0-1.18-.71,28.11,28.11,0,0,0-3.72,2.63l-.66.21A2.18,2.18,0,0,1,297.53,5c-.41-.66-.86-1.34-1.34-2a3.55,3.55,0,0,0-1.73-1.44A4.11,4.11,0,0,0,292,4a6.2,6.2,0,0,1-.7,1.8,2.19,2.19,0,0,1-1.86.08,8.35,8.35,0,0,0-6.84-1.75,5,5,0,0,0-3.87,4.33,6.09,6.09,0,0,0-.12,1.66c0,.74-.35,1.1-1,1.09a1.57,1.57,0,0,1-1.29-.67,7.3,7.3,0,0,0-4.87-3.8A4.59,4.59,0,0,0,268.24,8a9.32,9.32,0,0,0-2.52,6.71,12,12,0,0,0,.64,1.82,1.07,1.07,0,0,1-1,.47,3,3,0,0,1-1.1-.48,3,3,0,0,0-2.49.16c-.86.85-1.34,2.3-1.46,4.36l.28.47a1.16,1.16,0,0,1-.64.68,9.77,9.77,0,0,1-2.75.14,2.54,2.54,0,0,0-2.46,1,19.81,19.81,0,0,0-1.52,4.3c-.82,3.34-.55,5.79.79,7.35a1.8,1.8,0,0,0,1.36.62,2,2,0,0,1,1.36.53c.12.16.09.37-.09.64a14.24,14.24,0,0,0-1.62.81,2.54,2.54,0,0,0-1.07,1.36c-.71,1.43-.64,2.57.21,3.4l1.71.69a.65.65,0,0,1-.08.71A10.47,10.47,0,0,0,253.19,46c-.82,2.29-.91,4.14-.31,5.55a4.07,4.07,0,0,0,4,2.88,3.14,3.14,0,0,0,1.29-.49,2.3,2.3,0,0,1,1.38-.4,1.38,1.38,0,0,1,1,.55c.12.31,0,.66-.36,1a5.26,5.26,0,0,0-.79.87,8.52,8.52,0,0,0-1.23,3.18,2,2,0,0,0,.62,1.49,5.21,5.21,0,0,0,3.45.23,5.53,5.53,0,0,0,.93-.44,2.48,2.48,0,0,1,1-.35.88.88,0,0,1,.8.47c.11.64.17,1,.17,1a4.59,4.59,0,0,1-.53,1.27,1.38,1.38,0,0,0-.09,1.27,4.9,4.9,0,0,0,2.2.88c.94.16,1.82.3,2.64.41-.41,0,.06-.05,1.41-.14a1.1,1.1,0,0,1,1.14.65c0,.21,0,.5,0,.87a6.13,6.13,0,0,0-1.6,3.46,2.6,2.6,0,0,0,.16,1q1,1.44,4.11,1.41a9.61,9.61,0,0,0,3.59-.39,2.64,2.64,0,0,0,1.2-1.12,3.16,3.16,0,0,1,1-1.12,2,2,0,0,1,1.23,1.93,2.77,2.77,0,0,0,1,2.09,18.63,18.63,0,0,0,5.5.44c.41-.14.8-.28,1.15-.43a1,1,0,0,1,1.13.21,4.9,4.9,0,0,1,.56,2.08,1.94,1.94,0,0,0,1.26,1.65,13.2,13.2,0,0,0,6.82-.59,3.25,3.25,0,0,0,2.62-2.46s.07-.42.22-1.09a.68.68,0,0,1,.81-.66,14.39,14.39,0,0,1,1.62,1.21,3,3,0,0,0,1.89.76c1.17,0,2.37-.08,3.6-.17a5.2,5.2,0,0,0,2.93-1,5.78,5.78,0,0,0,1.65-3.35.9.9,0,0,1,.63-.35,2.34,2.34,0,0,1,.86.43,1.25,1.25,0,0,0,1,.29c1.29-.1,2.15-.18,2.56-.25a7,7,0,0,0,2.34-1,1.06,1.06,0,0,0,.39-.67c0-.21-.27-.57-.87-1.08s-.78-1-.58-1.44.72-.54,1.57-.41,1.39,0,1.65-.32c.19-.19.17-.4-.05-.64-.4-.35-.59-.58-.59-.69a.64.64,0,0,1,.23-.85,1.42,1.42,0,0,1,1-.3,8.38,8.38,0,0,1,1.65.56,2.89,2.89,0,0,0,1.76.26,2.63,2.63,0,0,0,1.46-.79A1.58,1.58,0,0,0,329.72,61.49ZM278.11,32.23h-.18v.16ZM296,17.05a.18.18,0,0,0-.14,0S295.85,17.1,296,17.05Zm6.42,44.58c-.18,0-.27,0-.27.06Q302.48,61.71,302.4,61.63Z"/><path class="cls-1" d="M390.73,83.35a5.45,5.45,0,0,1-3.89,5.44,5.4,5.4,0,0,1-3,.19,10.19,10.19,0,0,1-4.65-2.35A3.36,3.36,0,0,1,376,88.17a2.44,2.44,0,0,1-1.77-.72l-.73-1.34a4.72,4.72,0,0,1-3.51,0,2.52,2.52,0,0,1-1.17-1.41c-3.44,1.69-6.14,2.36-8.14,2a5.14,5.14,0,0,1-4.23-2.58,9.2,9.2,0,0,1-.7-2c-2.23.14-3.28.23-3.17.25a2.38,2.38,0,0,1-1.59-.87c-.15-.24-.31-.47-.47-.71q-2.46,2.35-4.37,2.34a12.29,12.29,0,0,1-1.92-.1,6.64,6.64,0,0,1-4.62-2.5,5.57,5.57,0,0,1-1.12-5.22,13.84,13.84,0,0,1,2.18-3.47,3.63,3.63,0,0,1-2.4-2.2,4.34,4.34,0,0,1-.17-1.53c.11-1.52,1.05-3.2,2.84-5-.84-.68-1.35-1.12-1.51-1.29a2.16,2.16,0,0,1-.78-1.69c0-1.31.84-2.22,2.42-2.72a.25.25,0,0,0,.18-.05c-2.41-2.1-3.55-3.9-3.38-5.42q.18-1.56,2.49-3.59a4.25,4.25,0,0,1-1.73-3.78,9.17,9.17,0,0,1,.17-1.17,32.69,32.69,0,0,0,1.79-3.67A3.75,3.75,0,0,1,337.76,38a2.39,2.39,0,0,1,.18-2.8A6.44,6.44,0,0,1,341,33.06c0-5.19,1.71-8.48,5.19-9.83a15.48,15.48,0,0,1,7.56-1.2c4.37.77,7.32,2.77,8.82,5.92a10,10,0,0,1,1,5.1A5,5,0,0,1,362.44,36c-.28.3-.55.61-.82.91,1.7,1.38,2.46,2.73,2.29,4-.31.91-1.27,1.74-2.86,2.5q2.38,2.06,2.38,6.84a2.36,2.36,0,0,1-1.68,2.68,1.37,1.37,0,0,0-.55.07,4,4,0,0,1,.93,3.73A3.84,3.84,0,0,1,361,58.15q1.89,1.82,1.11,3.61A4.06,4.06,0,0,1,359.25,64c1.9,1.36,2.76,2.7,2.58,4l-.56,1.34a8.88,8.88,0,0,1,1.62-.22,6.2,6.2,0,0,1,4.63,2.69,10.48,10.48,0,0,1,3.21-.17,3.28,3.28,0,0,1,1.61.73L373,73a5.13,5.13,0,0,1,4.74-2,3.7,3.7,0,0,1,3.62,3.57,5.34,5.34,0,0,1,1.68.09A9.29,9.29,0,0,1,387.48,77,10,10,0,0,1,390.73,83.35Zm-1.62,1.74a4.37,4.37,0,0,0,.13-4.14,8.47,8.47,0,0,0-5.66-4.83,12.55,12.55,0,0,0-2.78.26l-.42-.16a1.07,1.07,0,0,1-.56-1c0-.45.05-.88.1-1.3-.11-.66-.65-1.19-1.61-1.58a4,4,0,0,0-2.92.66,2.11,2.11,0,0,0-1,1.17c-.31.64-.69,1-1.17,1a2.52,2.52,0,0,1-1.07-1.23,2,2,0,0,0-2-1l-2.54.6a18.42,18.42,0,0,0-1.91-2.24,5.39,5.39,0,0,0-4.47-.65,6.85,6.85,0,0,0-1.19.45,2.78,2.78,0,0,1-1.36.35,1.42,1.42,0,0,1-.92-.62c-.15-.35,0-.63.39-.86s.76-.45,1.07-.67c.94-1.24,1.15-2.29.64-3.17-.13-.6-.69-1.08-1.7-1.42s-1.58-.81-1.71-1.41c.56-.13,1.33-.33,2.33-.6a3.42,3.42,0,0,0,2.08-1.91,1.87,1.87,0,0,0-.23-1.55c-.1-.28-.49-.61-1.17-1s-1-.76-1-1.18a3.28,3.28,0,0,0,2.06-1,3.7,3.7,0,0,0-1.37-4c-.51-.34-.66-.66-.46-.94s.39-.32.74-.21l1,.23c.72,0,1.16-.19,1.31-.59q.71-4.82-2.26-7.26a3.36,3.36,0,0,1-.77-.6c0-.26.1-.48.42-.65a17.7,17.7,0,0,0,2.06-.63,1.9,1.9,0,0,0,1.13-1.5,4.07,4.07,0,0,0-1.6-2.55,4.26,4.26,0,0,1-1.48-.86c-.15-.39.09-.73.72-1s1-.48,1.06-.63a5.24,5.24,0,0,0,1-2.71,8.62,8.62,0,0,0-1.88-5.93,8,8,0,0,0-5.73-3.15,12.89,12.89,0,0,0-3.27-.06,20.18,20.18,0,0,0-4.1,1.12c-2.78,1.07-4.29,3.52-4.56,7.35a15.88,15.88,0,0,0,0,2.38c-.63.29-1.52.76-2.65,1.41a1.74,1.74,0,0,0-.69,2.06,2.2,2.2,0,0,0,1.5.66,8,8,0,0,1,1.71.29c.47.22.66.5.57.86a15.31,15.31,0,0,0-3.21,5.86,3.9,3.9,0,0,0,.43,1.64,2.91,2.91,0,0,0,2.78.19,6.77,6.77,0,0,1,1,.53,1.18,1.18,0,0,1,.14.57c0,.32-.37.55-1,.71s-1.08.32-1.21.52c-1.71,1.22-2.58,2.28-2.64,3.17a2.06,2.06,0,0,0,.19,1,4.82,4.82,0,0,0,1.91,2.3,18.92,18.92,0,0,1,2.45,2c.09.33.08.54,0,.63a10.26,10.26,0,0,1-2.08.45,1.89,1.89,0,0,0-1.51,1.09,1.07,1.07,0,0,0,.44,1.4,22.64,22.64,0,0,1,2.11,1.62.93.93,0,0,1-.06.79,8.47,8.47,0,0,0-3,3.52,2.48,2.48,0,0,0,.36,2.42,2,2,0,0,0,1.4.86,4.1,4.1,0,0,1,1.38.49c.19.16.22.44.07.84q-3.3,2.93-3.39,5.62c-.1,1.42.72,2.55,2.47,3.41a5.54,5.54,0,0,0,4.41.75q1.59-.34,3.92-3c.54-.13.82,0,.84.4a5.29,5.29,0,0,0,.49,1.62,4.82,4.82,0,0,0,3.05.21,5.27,5.27,0,0,0,.82-.39,1.35,1.35,0,0,1,1.07-.19c.23,0,.42.25.56.64a4.31,4.31,0,0,0,.28,2.83,5.19,5.19,0,0,0,4.39,1.81c.87,0,2.7-.54,5.51-1.71a5.37,5.37,0,0,0,1.05-.86,1.15,1.15,0,0,1,1.33-.16.81.81,0,0,1,.43,1,1.12,1.12,0,0,0,.15,1.07,3.43,3.43,0,0,0,1.66.13c.29,0,.69-.17,1.21-.66a1.27,1.27,0,0,1,1.34-.23.9.9,0,0,1,.44.88c0,.36-.08.7-.11,1a1.22,1.22,0,0,0,.73.62,2.7,2.7,0,0,0,1.69-.24,1.84,1.84,0,0,0,.86-1q.39-.89,1-.93L380,85.5a6.68,6.68,0,0,0,4,2.15Q387.15,88.28,389.11,85.09Z"/><path class="cls-1" d="M463.13,56.51q.78,2.94-1.58,4.13a8,8,0,0,1-2.84.39A9.12,9.12,0,0,1,460,67a1.46,1.46,0,0,1-1.58,1.12l-.36,0a6.57,6.57,0,0,1,1,4.07,4.74,4.74,0,0,1-3.1,3.32,8.68,8.68,0,0,0-1.37.21c1.64,2.1,2.39,4,2.27,5.7q-.6,2.33-3.61,2.42a3,3,0,0,1,1,2.67,2.56,2.56,0,0,1-1.4,1.27,2.82,2.82,0,0,1,.18,3.06,5,5,0,0,1-2.35,1.62,3.69,3.69,0,0,1,.59,4.33c-1.12,2.3-3.18,3.38-6.19,3.27a4.66,4.66,0,0,1-3.46-1.63c-.14.12-.35.33-.64.62a3.69,3.69,0,0,1-4.38.73,12.43,12.43,0,0,1-1.26-.94q-3.32,4.07-7.66,2.6c-1.48-.36-2.74-1.7-3.8-4a7.06,7.06,0,0,1-3.32.32,2.81,2.81,0,0,1-1.37-.89,13,13,0,0,1-1.38-2,7,7,0,0,1-4.18.86,6.36,6.36,0,0,1-1.74-.19c-3.46-.86-5.3-3.09-5.53-6.74a3.86,3.86,0,0,1-3.22-.35c-1.17-1-1.71-1.87-1.6-2.7.06-.44.11-.89.17-1.33-1.11-.09-1.72-.15-1.84-.18a3.71,3.71,0,0,1-2.39-2.86A5.39,5.39,0,0,1,398.6,77c-1.43-.9-2.08-1.93-1.94-3.07a6.71,6.71,0,0,1,1.75-2.59q-2.88-1.35-2.87-3.67a5.17,5.17,0,0,1,3.55-5.48,2.8,2.8,0,0,1-.94-2.62c0-1,.7-2.09,2.13-3.38-1.24-.7-1.81-2-1.7-3.9a8.62,8.62,0,0,1,2.78-4.84,2.16,2.16,0,0,1-1.19-2.19c.09-.73.65-1.33,1.69-1.8q-2.26-2.58-.7-6.33l.36-.64c2.13-3.17,5.48-4.33,10-3.43a16.46,16.46,0,0,1,5.65,1.43c3.62,1.58,5.43,4.07,5.46,7.4a5.71,5.71,0,0,1-2.27,4.26q2.07,1.57,2,3.18a2.49,2.49,0,0,1-2.19,1.86,3.25,3.25,0,0,1,1.1,3.82c-.13.08-.76.4-1.87,1,1.31,2.8,1.81,4.79,1.53,6a1.71,1.71,0,0,1-1.5,1.55c-.31,0-.74.08-1.29.16a2.6,2.6,0,0,1,1,2.43,4.81,4.81,0,0,1-2,2.63A4.13,4.13,0,0,1,419,73a16.43,16.43,0,0,1-2,5.14,15.11,15.11,0,0,1,1.69.75,2.8,2.8,0,0,1,1.11,1.26,5.29,5.29,0,0,1,.31,1.93c.37-.12,1-.28,1.81-.49a5.37,5.37,0,0,1,2.72.07,8.05,8.05,0,0,1,3.87,2.27,5.23,5.23,0,0,1,3.55-3.22,4.41,4.41,0,0,1,2.35-.07,6,6,0,0,1-.31-2.6c.28-1,1.17-1.66,2.66-2-1.43-1.65-2-3.25-1.59-4.82A5,5,0,0,1,438,67.63a4.3,4.3,0,0,1-.66-1,2.34,2.34,0,0,1,.29-3,1.37,1.37,0,0,1,.9-.47v-.08a12.16,12.16,0,0,1-1.16-2,3,3,0,0,1-.43-1.9q.3-3.72,3.07-4.31l.87-.23a8.29,8.29,0,0,1-.4-1,6.5,6.5,0,0,1-.07-4.79c1.13-2.81,3.57-4.14,7.33-3.94a10.7,10.7,0,0,1,6.81,2.79,9,9,0,0,1,2.24,4.85,7.36,7.36,0,0,1,4,1.18A4.36,4.36,0,0,1,463.13,56.51Zm-1.57,2a2.86,2.86,0,0,0-.46-3.16c-1.15-1.19-2.9-1.67-5.23-1.42a.91.91,0,0,1-.58-.43A6.82,6.82,0,0,0,454,49.31a6.57,6.57,0,0,0-3.68-2.75,7.66,7.66,0,0,0-3.78-.24,6.36,6.36,0,0,0-4,1.75,4.87,4.87,0,0,0-1,4.9,2.91,2.91,0,0,0,.62,1.31,8.33,8.33,0,0,1,1,1.26c0,.28-.13.41-.43.4a22,22,0,0,0-3.05.62,4.66,4.66,0,0,0-1.09,1.63A3.86,3.86,0,0,0,439.3,62a5.16,5.16,0,0,0,.76.95,1.25,1.25,0,0,1,.39,1,9.54,9.54,0,0,0-1.85.68,1.53,1.53,0,0,0-.12,1.34,1.68,1.68,0,0,0,.69,1.09A3.73,3.73,0,0,1,440,68c0,.32-.17.51-.55.57a5.39,5.39,0,0,0-.93.13,4.49,4.49,0,0,0-1.9,2.78A4.34,4.34,0,0,0,438,75.59a4.77,4.77,0,0,1,1.28,1c.07.35,0,.52-.17.52a5.49,5.49,0,0,0-3,.52,1.71,1.71,0,0,0-.53,1.06,5,5,0,0,0,.64,2.77c.12.41.14.64.08.67-.52-.15-1.3-.32-2.35-.51-2.08-.1-3.48,1-4.18,3.2a2.56,2.56,0,0,1-.67,1.43.73.73,0,0,1-.82-.47,6.22,6.22,0,0,0-1.94-2.55A7.05,7.05,0,0,0,425,82.7a5.26,5.26,0,0,0-4.1.53,4.91,4.91,0,0,0-1.07.93c-.46.47-.77.68-.94.64-.49-.29-.77-.57-.81-.85a8.16,8.16,0,0,1,.25-2.12,2.18,2.18,0,0,0-.14-1.81,1.81,1.81,0,0,0-1.31-.57,4.08,4.08,0,0,1-1.3-.25c-.29-.12-.36-.46-.22-1a22.54,22.54,0,0,0,2.23-5q.48-3.42-2.14-4.64s0-.12.16-.53a3.09,3.09,0,0,0,2.05-2.38A2.29,2.29,0,0,0,417,64a3.73,3.73,0,0,0-.58-.42c-.33-.22-.42-.42-.28-.6.11-.34.28-.44.5-.28a10.67,10.67,0,0,0,2.73-.68c.13-.07.23-.61.32-1.61a11.47,11.47,0,0,0-2.12-5c0-.43.31-.72.94-.85a6.22,6.22,0,0,0,1.14-.32c.48-.41.52-1.1.11-2.07A9.24,9.24,0,0,1,418,50.43c0-.23.12-.4.44-.54a3.17,3.17,0,0,0,2.14-.83,1.71,1.71,0,0,0,0-1,1.6,1.6,0,0,0-1-1,3.51,3.51,0,0,1-1.1-.72c0-.18.06-.36.08-.55A14.62,14.62,0,0,0,420.38,44q1.78-2.2.26-5.17a8.8,8.8,0,0,0-4.32-3.72,19.9,19.9,0,0,0-3.86-1,9.77,9.77,0,0,0-8.17,1.57,6,6,0,0,0-2.36,5.65,8.5,8.5,0,0,0,1.84,2.9c.05.12,0,.24-.22.35a2.52,2.52,0,0,0-2,.83c-.13.08-.1.36.09.82a4.53,4.53,0,0,1,1.94,1.32.49.49,0,0,1-.32.73l-1,.42c-.39.39-.77.79-1.16,1.19a7.89,7.89,0,0,0-1.24,4.21c.11.51.59.86,1.41,1s1.31.45,1.45.8a.77.77,0,0,1-.09.71c-2.13,1.55-3.17,2.85-3.11,3.88.06.44.41.81,1,1.11s1,.57,1.07.8c.19.42.1.64-.26.66a12.33,12.33,0,0,0-3,1.26,4.84,4.84,0,0,0-1.4,4.74,2.14,2.14,0,0,0,1.21,1.15,3.89,3.89,0,0,0,1.57.35,1.28,1.28,0,0,1,1.27.6c.16.15.17.28,0,.41-1.81,1-2.8,2.08-3,3.11a.83.83,0,0,0,.34.88,3.36,3.36,0,0,0,1,.23,1.84,1.84,0,0,1,1.07.4c.24.21.27.54.1,1a4.74,4.74,0,0,0-2,4.45c.25.8.67,1.24,1.25,1.32a2.12,2.12,0,0,0,1.55,0,3.41,3.41,0,0,1,1.31-.18,1.79,1.79,0,0,1,.74.41,2.54,2.54,0,0,1-.21,1.64,2.05,2.05,0,0,0-.08,1.67,1.37,1.37,0,0,0,.91.78,11.81,11.81,0,0,1,3.37,0,.89.89,0,0,1,.39,1.06c-.18.87-.26,1.28-.25,1.22a4.26,4.26,0,0,0,1.88,3.68,8.77,8.77,0,0,0,2.18.86,6.53,6.53,0,0,0,4.64-.36c.23,0,.52-.18.87-.54a.89.89,0,0,1,1-.34,1.91,1.91,0,0,1,.84.94,2.91,2.91,0,0,0,.92,2.18,2,2,0,0,0,1.18.39,18.72,18.72,0,0,0,3-.9,1.1,1.1,0,0,1,1.07,1.1,16.11,16.11,0,0,0,.27,1.76,4,4,0,0,0,1.46,1.38c1.87.89,4,.42,6.5-1.41a6.84,6.84,0,0,1,1.85-1.57,1,1,0,0,1,.65.64c.16.34.3.66.42,1l.75.3a3,3,0,0,0,2.94-1.08,12,12,0,0,1,1-1.16,1.5,1.5,0,0,1,1,.67c.26.37.54.74.84,1.1a2.38,2.38,0,0,0,1.18.36,6.37,6.37,0,0,0,4-.79A4,4,0,0,0,450.27,95a4.73,4.73,0,0,0-1.19-3.46c0-.27.15-.45.5-.53l.89-.25c1.09-.74,1.63-1.44,1.63-2.09.1-.24,0-.55-.29-.94s-.42-.67-.39-.82l.22-.26c.73-.41,1.07-.8,1-1.14a1.54,1.54,0,0,0-.64-1.22c-.45-.39-.86-.74-1.22-1.07-.1-.14,0-.38.31-.72l.53.08c1.89.22,3.1-.29,3.62-1.53.49-2.07-.48-4.15-2.92-6.21a1.13,1.13,0,0,1,.36-.46c2.08.27,3.58-.3,4.51-1.74a3.75,3.75,0,0,0-.44-4.29,4.2,4.2,0,0,1-1.22-1.93c.21-.15.64-.14,1.28,0a1.56,1.56,0,0,0,1.4-.09c.38-.42.41-1.46.09-3.14l-1.65-3.21c-.14-.26,0-.47.3-.64.85.05,1.76.09,2.71.09A1.83,1.83,0,0,0,461.56,58.53Zm-62.19,2.79-.08-.1-.08,0,.07.1ZM415.71,78.6l.09,0v.08Z"/><path class="cls-1" d="M520.43,112.11a7.11,7.11,0,0,1-.15,1,3.58,3.58,0,0,1-3.13,2.68h-.91c1.55,1.91,2.13,3.37,1.76,4.38-.82.91-2.48.86-5-.13.26,1.22.21,2-.13,2.44l-1,.83a1.17,1.17,0,0,1-1.18.23,8.89,8.89,0,0,1-.95-.58,3.88,3.88,0,0,1-1.72.41,16.35,16.35,0,0,1-5.6-.72,5.26,5.26,0,0,1-1.89-1.62,4,4,0,0,1-1.28,1.29,10.86,10.86,0,0,1-6.66.5q-2.73-.6-3.09-3.87a8.11,8.11,0,0,1-2.91-.24,2.44,2.44,0,0,1-1.21-1c-.17-.28-.41-.7-.71-1.26-3.93,1.07-7,1.21-9.19.4a7.29,7.29,0,0,1-4.47-4.41,6.89,6.89,0,0,0-.23-.66c-2.23.78-4,.95-5.34.48a4,4,0,0,1-2.92-2.89,7.1,7.1,0,0,1,1.16-2.86,5.78,5.78,0,0,1-3.35-2.12c-.67-.88-.66-2.07,0-3.58.83-1.3,2.49-2.46,5-3.46l-.9-.51a2.11,2.11,0,0,1-.88-1.08c-.1-.41.37-1.18,1.43-2.29A6,6,0,0,1,461,90a3.31,3.31,0,0,1,.85-3.15,15.84,15.84,0,0,1,3.78-2.72,7,7,0,0,1-1.14-1.45,2.74,2.74,0,0,1,.2-2.79,5.62,5.62,0,0,1,3.08-2.79c-1.09-1-1.51-1.93-1.24-2.71a6.23,6.23,0,0,1,3.79-3.53,20.34,20.34,0,0,1-1-1.82,7.71,7.71,0,0,1-.6-4.21,3.35,3.35,0,0,1,1-1.94,9.21,9.21,0,0,1,5.92-3.27,12.43,12.43,0,0,1,6.55.44,11.38,11.38,0,0,1,2.14,1,8.65,8.65,0,0,1,3.67-.54,4.92,4.92,0,0,1,2.64,1.35,3.11,3.11,0,0,1,1.3,2.34,10.93,10.93,0,0,1,6.16,2.37,8.06,8.06,0,0,1,1.47,1.48,11.56,11.56,0,0,1,7.69-.72A4.07,4.07,0,0,1,510,71.62c.37,0,.94.14,1.73.3A6,6,0,0,1,516,74.53c.59,1,.69,1.76.3,2.36a3.46,3.46,0,0,1-.81.66,12,12,0,0,1,3.89,3.66A8.4,8.4,0,0,1,521,85.78a5,5,0,0,1-2.57,4.53,7.82,7.82,0,0,1,1.41,2.7c.29,1.13.17,1.88-.36,2.26s-1.66.49-3.22.26a6.67,6.67,0,0,1,.77,3.41,1.64,1.64,0,0,1-.35.68c-.54.48-1.87.49-4,0a6.16,6.16,0,0,1,.64,3.19,2,2,0,0,1-.5.94C517.15,105.4,519.67,108.21,520.43,112.11Zm-1.42,1a2.72,2.72,0,0,0,.06-2.9,9.83,9.83,0,0,0-5.1-4.83,8.64,8.64,0,0,0-2.59-.7l-1.15,0a1.14,1.14,0,0,1-1-.37c-.18-.29-.11-.6.21-.91a5.14,5.14,0,0,0,2.51-.92c.45-.35.46-1.18,0-2.48a10.74,10.74,0,0,1-1.58-1.17q-.65-.76-.36-1.23a.79.79,0,0,1,.76-.09,6.11,6.11,0,0,0,1.23.69,6.5,6.5,0,0,0,3.65.58,1.86,1.86,0,0,0,.52-.61,3.33,3.33,0,0,0-1.14-2.66,3.64,3.64,0,0,1-1-1.11.48.48,0,0,1,.23-.57,2.52,2.52,0,0,1,1.05.29q1.06.21,2.19.33a1.32,1.32,0,0,0,1.52-.71,2.44,2.44,0,0,0-.26-1.61,5,5,0,0,0-2.07-1.49.76.76,0,0,1-.15-1,1.69,1.69,0,0,1,.62-.23,4.63,4.63,0,0,0,2.91-3.22,4,4,0,0,0-.06-2.11,9.05,9.05,0,0,0-5.16-5.63,3.52,3.52,0,0,1-1.51-.81c-.19-.24-.21-.44-.05-.6a10.38,10.38,0,0,0,2.14-1.5,2.07,2.07,0,0,0-.43-1A6.14,6.14,0,0,0,511.24,73a17.92,17.92,0,0,1-2.36.43c-.12,0-.39-.19-.81-.58-.12-.27.18-.81.93-1.61a1.9,1.9,0,0,0,.05-1,2.47,2.47,0,0,0-1.54-1.54,28.88,28.88,0,0,0-4.06-.4,7.78,7.78,0,0,0-3.74,1.65,1,1,0,0,1-.52-.21A4.57,4.57,0,0,0,498,67.85a7.34,7.34,0,0,0-2.8-1.83,7,7,0,0,0-3.65-.49,5.5,5.5,0,0,0-.78.16.81.81,0,0,1-.89-.21c-.32-.29-.46-.5-.43-.66s.26-.34.68-.56.65-.44.69-.65a1.72,1.72,0,0,0-.92-1.41,3,3,0,0,0-1.68-.55,4.81,4.81,0,0,0-3.77,1.08,6,6,0,0,0-1.41-.92,11,11,0,0,0-11.07.84,5.39,5.39,0,0,0-2.32,3.45,4.34,4.34,0,0,0,.26,2.54c.4.68.79,1.36,1.18,2a10.65,10.65,0,0,1,.51,1.24,11.21,11.21,0,0,0-2.23,1q-1.77,1.6-1.77,2.58c.11.42.52.76,1.23,1a4.8,4.8,0,0,1,1.38.72.58.58,0,0,1,.15.67l-.61.28a7.63,7.63,0,0,0-1.07-.13,5.64,5.64,0,0,0-3.23,3.07c-.19.7-.15,1.15.11,1.34a1.4,1.4,0,0,0,1.13.8l1.41.24a.8.8,0,0,1,.72.57c.12.31.06.48-.19.51a9.09,9.09,0,0,0-3.87,1.7c-1.65,1.07-2.55,2-2.7,2.84a2.74,2.74,0,0,0,0,1.24c.17.71.93,1.34,2.27,1.91a21.75,21.75,0,0,1,2.59.64c.37.24.54.48.49.74a7.41,7.41,0,0,0-2.32,1.74,2.25,2.25,0,0,0,1.06,1.09,2.27,2.27,0,0,1,1.05,1.1.47.47,0,0,1-.1.54c-3.71,1.17-5.73,2.75-6.09,4.7-.19,1,.35,1.75,1.64,2.19a4,4,0,0,0,1.23.13,3.83,3.83,0,0,1,1.22.14,1.18,1.18,0,0,1,.66.55c.15.27.16.47,0,.58a5.25,5.25,0,0,0-1.91,2.53,2,2,0,0,0,.54,1.41,3.12,3.12,0,0,0,2.64,1.08,3.25,3.25,0,0,0,2.05-.5c1.11-.48,1.76-.76,2-.86s.56.15.77.61c0,2,.59,3.33,1.69,4.06a11.18,11.18,0,0,0,2,1c2.1.78,5,.61,8.59-.47a2.82,2.82,0,0,1,1.12-.63,1,1,0,0,1,.77,1,2.2,2.2,0,0,0,.17,1.31,2.13,2.13,0,0,0,1.26.82,14.92,14.92,0,0,1,3-.3q.47.34.51.54a7,7,0,0,0-.16,1.37,2,2,0,0,0,.39,1.28c.55.77,1.85,1.2,3.92,1.33a11.49,11.49,0,0,0,2.23-.33,3,3,0,0,0,1.92-1.15c.4-.58.55-1,.44-1.35,0-.1.14-.22.35-.36a1,1,0,0,1,.94.64,2.46,2.46,0,0,0,1.57,1.82,9.46,9.46,0,0,0,5.84.5c0-.18.09-.4.34-.69s.54-.26.89.06l.92.73a1.26,1.26,0,0,0,1.37-.82c.27-.38,0-1.24-.75-2.57,0-.4.08-.6.32-.61a19.38,19.38,0,0,0,3.61,1.67c1.12.11,1.76-.13,1.9-.74.16-.37-.1-1-.76-1.75A3,3,0,0,0,515,116a2.47,2.47,0,0,1-1.29-1.28.34.34,0,0,1,.25-.47.61.61,0,0,1,.64.2Q517.89,115.05,519,113.06ZM463.77,86.65l-.08,0,0,.08S463.71,86.63,463.77,86.65Zm41.74-.75a.51.51,0,0,1-.7.42c-.38-.08-.76-.13-1.12-.17-.92,0-1.6.51-2,1.65a8.28,8.28,0,0,0-.07,2.79,1.2,1.2,0,0,1-.54.36,3.45,3.45,0,0,1-1.55-1.33,3.23,3.23,0,0,0-1.74-1.32,7.5,7.5,0,0,0-5.74.14,4.8,4.8,0,0,1-1-.29,1.15,1.15,0,0,1-.31-1.15,1.52,1.52,0,0,0-.12-1.16,1.71,1.71,0,0,0-.87-.66,17.1,17.1,0,0,0-2.45-.19,5.33,5.33,0,0,1-1.89-.22c-.11,0-.23-.22-.35-.54s.19-.61.69-.65c2-.18,3.37-1.46,4.12-3.87a2.25,2.25,0,0,0,.07-1.2,12.68,12.68,0,0,1-1.83-2.34c0-.23.14-.39.47-.48.61.34,1.6.79,3,1.37a15.57,15.57,0,0,0,5.2,0c1.26-.11,1.81-.2,1.64-.27q.25.11.42.66l-.09.38a7.06,7.06,0,0,1-.35,1.19,1.25,1.25,0,0,0,.37,1.3,7.93,7.93,0,0,0,4.3-.1,1.72,1.72,0,0,1,.69.28c.32.52.36.89.12,1.13a1.8,1.8,0,0,0,.46,3.37C505,85.29,505.4,85.58,505.51,85.9Zm-2.45,17a.52.52,0,0,1-.28.63c-.24.12-.71,0-1.41-.25s-1.2-.27-1.51.05a3.39,3.39,0,0,0,.78,3,2,2,0,0,1,.22,1.41.37.37,0,0,1-.61-.08A4.45,4.45,0,0,0,499,107c-1.24.15-2,.55-2.17,1.19-.08.08-.11.37-.1.87,0,.32-.18.42-.51.28-.45-.45-1.15-1.12-2.11-2a3.17,3.17,0,0,0-.88-.51,6,6,0,0,0-4.1.11,1.72,1.72,0,0,1-.76-1.32,2.08,2.08,0,0,0-.75-1.4,4.81,4.81,0,0,0-4.6,0,.89.89,0,0,1-.78-.62c-.13-.27.16-.63.85-1.08,1.61-1.64,2.52-3,2.74-4a5.08,5.08,0,0,0-.76-4.24c0-.35,0-.57.14-.68a2.61,2.61,0,0,1,.88.16,3.13,3.13,0,0,1,1,1.48c.27.74.57,1.17.91,1.3a1.49,1.49,0,0,0,.62.07,18.74,18.74,0,0,0,3.74-1.26.82.82,0,0,1,.87.25,3.39,3.39,0,0,0,.56,2,2.58,2.58,0,0,0,2.14.27,17.65,17.65,0,0,1,2.1-.4,1.33,1.33,0,0,1,.61.58c0,.27,0,.72.07,1.35a1.8,1.8,0,0,0,.92,1.61,6.5,6.5,0,0,0,1.93.79A2.22,2.22,0,0,1,503.06,102.94Zm-.39-18c-.91-1.48-1.26-2.46-1-3a14.61,14.61,0,0,1-2-.14,4.9,4.9,0,0,1-2.64-2,2.09,2.09,0,0,1-.15-1.46,46.86,46.86,0,0,1-6-.18,3.91,3.91,0,0,1-.45,3.94l-.07-.11a10.07,10.07,0,0,1-.76,1,2.61,2.61,0,0,1-.73.87A6.37,6.37,0,0,1,492.07,86a2.45,2.45,0,0,0,.47.84,9.33,9.33,0,0,1,5.16.46l1.28.51a6.16,6.16,0,0,0,1,.82v-.49A3.07,3.07,0,0,1,502.67,84.91Zm-17.31,16.94c-.21.14-.3.25-.25.32A.85.85,0,0,0,485.36,101.85Zm13.77,4a16.89,16.89,0,0,1-.53-3,3.11,3.11,0,0,1,.32-.82c.15-.24.26-.29.35-.14a12,12,0,0,1-1.95-2.77,15.21,15.21,0,0,1-2.67.09,4.85,4.85,0,0,1-2.51-2.32,8.44,8.44,0,0,1-3.21.9,2.58,2.58,0,0,1-1.9-.9,2.12,2.12,0,0,0,0,.62,2.27,2.27,0,0,1,0,.78,6.75,6.75,0,0,1-1.78,4.17l1.3.25a4,4,0,0,1,3,2.64,7.84,7.84,0,0,1,3.53.48,18.71,18.71,0,0,1,2.37,1.6l.18-.42A3.37,3.37,0,0,1,499.13,105.8ZM486,101.1l-.12.12.08,0Zm.24-.32-.13.2Zm4.25-19,0,.07Zm5.6-3.68-.2.08.08,0ZM498.11,98l0-.08-.08,0,0,.07Zm5.52-17-.05-.19-.09,0Zm6.11,23.18.09,0Zm4.84-9.65-.07-.11,0,.08Zm2.35-4.47,0-.07c-.06,0-.09,0-.1,0Z"/></g></g></svg>