<svg xmlns="http://www.w3.org/2000/svg" viewBox="0 0 524.35 130.49"><defs><style>.cls-1{fill:#fff;stroke:#08476d;stroke-linecap:round;stroke-linejoin:round;stroke-width:3px;}</style></defs><title>1Asset 3</title><g id="Layer_2" data-name="Layer 2"><g id="Layer_2-2" data-name="Layer 2"><path class="cls-1" d="M80.43,79.63a4.33,4.33,0,0,1,.4,1.26c.32,1.85-.42,3.73-2.2,5.63l-.95.78c2.59.71,3.92,1.78,4,3.17-.37,1.69-2.17,3-5.39,4.11.92,1.12,1.26,2.07,1,2.85-.2.55-.38,1.09-.52,1.63a2.45,2.45,0,0,1-1.29,1.3,9.34,9.34,0,0,1-1.29.25,6.1,6.1,0,0,1-1.71,1.94,25.31,25.31,0,0,1-6.37,4.23,5.88,5.88,0,0,1-2.79-.12,7.68,7.68,0,0,1-.68,2.53,19.61,19.61,0,0,1-7,6.37q-3.21,1.74-5.19-1.39a13,13,0,0,1-3.19,2.33,2.27,2.27,0,0,1-1.79,0,9.25,9.25,0,0,1-1.34-.81c-3.68,4.64-6.86,7.52-9.61,8.62s-5,.83-6.9-.75a1.9,1.9,0,0,1-.55-.44c-2,2.82-3.8,4.58-5.44,5.28-2.07.88-3.58.74-4.53-.46a11.37,11.37,0,0,1-.17-4.1,5.47,5.47,0,0,1-4.6.85c-1.12-.39-1.69-1.69-1.69-3.92.27-2.12,1.44-4.84,3.52-8.13a6,6,0,0,1-1.16.33,2.22,2.22,0,0,1-1.58-.3,2.78,2.78,0,0,1-.25-.65A19.26,19.26,0,0,1,12,109C9.63,110,7.64,110,6,109a4.49,4.49,0,0,1-.73-4.1A29.13,29.13,0,0,1,8,98.55a5.79,5.79,0,0,1-2-.5c-.83-.33-1.24-1.38-1.24-3.17a11.64,11.64,0,0,1,2-5.71c-1.69,0-2.58-.58-2.65-1.67q-.31-3.19,2.23-7.14c-.5-.23-1.18-.57-2-1a7.35,7.35,0,0,1-2.57-4,5.91,5.91,0,0,1,0-3,18.37,18.37,0,0,1,4.7-8.7,19.7,19.7,0,0,1,7.15-5.49,10.84,10.84,0,0,1,2.88-.77,10.32,10.32,0,0,1,4.75-4.47,5.44,5.44,0,0,1,2.95-.25c1.09.18,1.76.57,2,1.19a14.29,14.29,0,0,1,7.85-3,20.16,20.16,0,0,1,2.25.31,21,21,0,0,1,8.07-7.6c2.48-.93,4.19-.26,5.13,2a19.82,19.82,0,0,1,1.94-1.24c2.41-1.32,4.38-1.62,5.89-.93a2,2,0,0,1,1.47,2.3,4.19,4.19,0,0,1-.5,1.38,10.3,10.3,0,0,1,6.78.81,6.16,6.16,0,0,1,3.75,4.51,9.37,9.37,0,0,1-1.12,5.73,5.94,5.94,0,0,1,2.87,1.54,2.45,2.45,0,0,1,.7,2.87c-.39.94-1.51,2-3.34,3.1,1.55,1.08,2.4,2,2.54,2.85a2.14,2.14,0,0,1-.08,1.09c-.43,1-1.88,2.17-4.33,3.51a5.29,5.29,0,0,1,2.26,2.85,2.78,2.78,0,0,1-.11,1.42,13.58,13.58,0,0,1,7-.75A8,8,0,0,1,80.43,79.63ZM48,66.24c-1.69-.71-2.56-1.43-2.58-2.19-.38.3-1.12.81-2.22,1.54a4.87,4.87,0,0,1-3.86.35,2.85,2.85,0,0,1-.87-1.49,69.45,69.45,0,0,1-6.53,5.1,4.7,4.7,0,0,1,1.38,4.75l-.12-.12c0,.4-.13,1-.27,1.75a5.13,5.13,0,0,1-.35,1.45A6.35,6.35,0,0,1,37,76.91l.92.4a16.13,16.13,0,0,1,5.84-4.14,12.53,12.53,0,0,1,1.67-.44l1.38-.09-.2-.51A5.52,5.52,0,0,1,48,66.24ZM37.62,99.75c0,.18,0,.35-.07.53A.72.72,0,0,0,37.62,99.75Zm16.67-8a15.21,15.21,0,0,1-2-2.73,2.12,2.12,0,0,1,.14-1.12c0-.43,0-.59.18-.47-.69-.09-1.36-.2-2-.35a2,2,0,0,1-1.43-1,14.28,14.28,0,0,1-2.89,2.52,4.11,4.11,0,0,1-3.72-.26,17.5,17.5,0,0,1-3,3.86,3.19,3.19,0,0,1-2.51.71,2.27,2.27,0,0,0,.45.82,2.05,2.05,0,0,1,.23.65c.68,1.17.71,3.22.12,6.14l1.54-.92c1.73-1,3.26-1,4.57.08a11.71,11.71,0,0,1,3.94-2.53,18,18,0,0,1,3.37-.4L51.14,96A6.41,6.41,0,0,1,54.29,91.71ZM38,98.31l0,.26Zm0-.6c0,.15,0,.3-.08.45l.08,0ZM33.3,74l0-.15-.08,0,0,.15Zm4.2-9-.23.25.09,0A1.64,1.64,0,0,1,37.5,65Z"/><path class="cls-1" d="M109.26,62.1l-.09,0a1.16,1.16,0,0,0-.67-1.2,2.18,2.18,0,0,0-1.54-.18,8.54,8.54,0,0,0-.95.33,8.8,8.8,0,0,1-1,.32,1.68,1.68,0,0,1-1.29-.07c-.26-.09-.29-.3-.09-.62a8.59,8.59,0,0,0,2.25-4.05q.18-.69-.21-.87a4.67,4.67,0,0,0-1.86-.05c-.52.13-1,.29-1.44.45a1,1,0,0,1-1.2-.33.63.63,0,0,1,.18-.69,18.34,18.34,0,0,0,3.07-2A22.33,22.33,0,0,0,106,51.22a3.41,3.41,0,0,0,.66-1.94,1,1,0,0,0-1.17-.59,12.46,12.46,0,0,1-1.61,0q-.72-.06-.78-.45a10.22,10.22,0,0,0,1.93-2.67q.74-3.26-.49-4.72c-.6-.7-2-1.16-4.11-1.36a7.88,7.88,0,0,0-3,.2q-3.87,1-8,5.81c0,.09-.09.18-.14.28l-.71.76a1,1,0,0,1-1.09.23c-.53-.23-1.44.08-2.73.94-2.09,2.06-3.07,3.78-3,5.16A2.14,2.14,0,0,0,83.47,55,3.4,3.4,0,0,0,85.31,55a3.41,3.41,0,0,1,1.85,0,.72.72,0,0,1,.25.41c0,.26-.13.62-.52,1.08a3,3,0,0,0-.63.95,1.87,1.87,0,0,0,.49,1.89,3.65,3.65,0,0,0,1.44.4c.56.05.85.32.87.8s-.28.78-.85,1a5.46,5.46,0,0,0-1.35.72,2.57,2.57,0,0,0-.73,2.88,2.11,2.11,0,0,0,2.17,1.48,3.38,3.38,0,0,1,1.78.31.58.58,0,0,1-.06.74,3.89,3.89,0,0,0-1,2c-.3,1.54.14,2.58,1.32,3.1a.52.52,0,0,1,.12.78c-.34.1-.86.27-1.55.52a3.63,3.63,0,0,0-1.85,2.57c-.41,2-.07,3.29,1,4,.16.28.6.37,1.31.27a1.89,1.89,0,0,1,1.48.22c.17.33,0,.7-.37,1.12a2,2,0,0,0-.65,1,1.25,1.25,0,0,0,.15.93c.15.28.49.41,1,.4s.78.19.79.62a2.52,2.52,0,0,1-1.16.9,2.59,2.59,0,0,0-1.16.9,2.56,2.56,0,0,0,.09,2.74A3.22,3.22,0,0,0,92.86,91l.11.13c.22.26.19.57-.1.92s-.55.69-.78,1a3.48,3.48,0,0,0-.34,1.56q.28,4.45,3.38,5.67a9.79,9.79,0,0,0,6.37.33,13.06,13.06,0,0,0,7.14-5A8.36,8.36,0,0,0,110.58,89c-.06-.41-.13-.85-.19-1.32a3.56,3.56,0,0,1-.28-2c1.24-.85,1.79-1.79,1.65-2.83a3,3,0,0,0-1.58.23c-.8.26-1.37.25-1.71,0a.64.64,0,0,1-.09-.63,12.52,12.52,0,0,0,2.3-5.26,1.49,1.49,0,0,0-.47-2c-.28-.25-1-.17-2.18.23a2.71,2.71,0,0,1-1.21-.09.43.43,0,0,1-.24-.34.56.56,0,0,1,.12-.43,8.36,8.36,0,0,0,2.09-3.68c.15-1.49.08-2.36-.19-2.62a1.88,1.88,0,0,0-1.42-.4c-.73,0-1.18-.17-1.35-.5,0-.11.16-.34.54-.71A7.72,7.72,0,0,0,109.26,62.1ZM102,55.8l-.2-.11,0,.08Z"/><path class="cls-1" d="M177.61,50.09a4.08,4.08,0,0,1-3.54,3.13l-1.34.19c.37,1.49.44,2.41.23,2.76a3.42,3.42,0,0,1-2.78,1l-1.56-.33a4.9,4.9,0,0,1-1.19,1.78,14.7,14.7,0,0,1,5.4,1.34,4.06,4.06,0,0,1,2.37,3.72,7.66,7.66,0,0,1-1.11,1.76,9.2,9.2,0,0,1,2.33,1.18,3.68,3.68,0,0,1,.73,4.75,12.71,12.71,0,0,1-2.07,2.85,6.43,6.43,0,0,1,4.22,4.1,12.3,12.3,0,0,1,.14,2.93,8.87,8.87,0,0,1-4.66,5.12c-3.09.78-5.27.48-6.56-.91a5.64,5.64,0,0,1-4.09,2.17A2.92,2.92,0,0,1,162,86.52c-1.61.86-2.9,1.08-3.88.66a4.31,4.31,0,0,1-3.44-4.42c-.08-3.13.73-5.57,2.45-7.31A4,4,0,0,1,153.06,73q-.6-1.48.68-4.67-4.45,1.76-6.32.2a16.88,16.88,0,0,1-4.94,2.31,5.24,5.24,0,0,1-2,0c0,1-.67,2.26-2,3.87,1.3.43,2,1.81,2,4.12a5.23,5.23,0,0,1-.55,2.13,20.54,20.54,0,0,0-1,2.06c3.08.66,4.76,2,5,3.91.16,1.42-.72,3-2.62,4.8-2.19,1.3-3.92,1.72-5.21,1.25a3.7,3.7,0,0,1-1.55-1.2c-1.06,1-2,1.39-2.75,1.24a2.65,2.65,0,0,1-2.14-2.26,8.42,8.42,0,0,1-5,3.88,4.79,4.79,0,0,1-4.15-.75,4.17,4.17,0,0,1-1.8-3.47c-.08-1.48.55-3.3,1.93-5.45a2.35,2.35,0,0,1-2.6-1.39c0-.64.49-1.89,1.55-3.75-2.63.35-4.38-.4-5.24-2.28-.86-2.74.41-5.86,3.86-9.31a2,2,0,0,1-1.79-.86c-.41-.6-.57-1-.48-1.25a8.39,8.39,0,0,1,2-2.88,3.47,3.47,0,0,1-4-1.46,2.64,2.64,0,0,1-.43-1.18,8.58,8.58,0,0,1,1-4.36,19,19,0,0,1,2.26-3.6c-1,.09-1.68-.24-2-1a5.59,5.59,0,0,1,1.43-3.72c-.26,0-.61-.12-1-.23a4,4,0,0,1-3-3.38,6.07,6.07,0,0,1,0-1c.62-2.67,2.76-5.17,6.42-7.46a2.07,2.07,0,0,1,2.42,0c1.85-2.4,3.77-3.73,5.72-4a3,3,0,0,1,3,2.33,3,3,0,0,0,.62-.25,3.48,3.48,0,0,1,.71-.27q4.07-.84,5.36-.13a10.89,10.89,0,0,1,7-5.6c1.82-.35,3-.07,3.61.82a6,6,0,0,0,.55,2.58c2.56-1.41,4.58-1.66,6-.76l.51.54a11.44,11.44,0,0,1,6.5-3.55,7.61,7.61,0,0,1,3.24.12,3.48,3.48,0,0,1,2.21,3.09,3.12,3.12,0,0,1-.32,1.56c.24,0,.61-.06,1.1-.09a31.66,31.66,0,0,1,4.23.09,4.37,4.37,0,0,1,3.28,2c.64,1.13.68,2.06.13,2.77l-.86.68c1.85,1.06,2.84,2.34,3,3.81a3,3,0,0,1-.81,2.34,4.89,4.89,0,0,1,2.3,3.9A5.47,5.47,0,0,1,177.61,50.09Zm-23.45,0a1.84,1.84,0,0,1-.52-.27,2.07,2.07,0,0,0-.53-.26q-2.34-1.59-1.64-3.63a2.38,2.38,0,0,1-2-1.07,7.69,7.69,0,0,1-3.59,1.54A2.34,2.34,0,0,1,144,44c-1.14.75-2.88,1.85-5.21,3.33a4.53,4.53,0,0,1,1.52,3,8.19,8.19,0,0,1-2,5.92,5.47,5.47,0,0,1,4.43.65c-.12,0,.13-.13.76-.47a10.6,10.6,0,0,1,3.89-1.7,4.56,4.56,0,0,1,2.74.22C150.46,52.93,151.8,51.29,154.16,50.08Z"/><path class="cls-1" d="M248.67,46.1c.39,2.26-.81,4.29-3.57,6.12a5,5,0,0,1,2.36,2.94,1.72,1.72,0,0,1-.47,1,3.74,3.74,0,0,1-2.08,1,15.3,15.3,0,0,1,1.18,1.39A7.67,7.67,0,0,1,248,62.68a3.49,3.49,0,0,1-.33,1.59,5.88,5.88,0,0,1-5.94,3l-.89,0a6.14,6.14,0,0,1,0,2.22,3.65,3.65,0,0,1-3.55,2.36l-1,0a7.85,7.85,0,0,1-5.1,2.69l-.18.09a4.47,4.47,0,0,1-.54,2.38c-1.22,2-3.5,3.31-6.84,4.11a8.3,8.3,0,0,1-7.5-2.16,7.47,7.47,0,0,1-5.06,2.16,4.41,4.41,0,0,1-3.91-1.47,8.14,8.14,0,0,1-4.16,2.23,2.67,2.67,0,0,1-1.19-.16,10,10,0,0,1-1.49-.76,17.44,17.44,0,0,1-7.41,3,7,7,0,0,1-4.57-1,4.25,4.25,0,0,1-2.22-3.45,5.91,5.91,0,0,1,1.4-3.74,2.52,2.52,0,0,1-.81-2.75,9.37,9.37,0,0,1,.82-2.08c-.23,0-.58,0-1,0-1.55-.12-2.48-.77-2.8-1.94,0-1,.74-2.77,2.27-5.44L184.68,63a1.75,1.75,0,0,1-.88-1.08c-.13-.93.5-3,1.89-6.1-2.35-.24-3.64-1.07-3.87-2.52a4.31,4.31,0,0,1-.27-1.16,35.09,35.09,0,0,1,1.25-5.07,20.06,20.06,0,0,1,1.95-3,2.9,2.9,0,0,1-2.33-1q-.46-1.2,1.89-4.28l.57-.55a10,10,0,0,1-2.36-1.2,4.36,4.36,0,0,1-1.44-4.65,12.56,12.56,0,0,1,2.67-4.94,11.88,11.88,0,0,1,5.51-2.8l1.12.11a8.27,8.27,0,0,1,5.18-2.64,3.84,3.84,0,0,1,3.37.92q2.52-1.05,6.89-.26l.84.24A17.31,17.31,0,0,1,214,18.62a4.17,4.17,0,0,1,4.5,2,4.17,4.17,0,0,1,.32,1l.19.06a8.68,8.68,0,0,1,2-.37,6.9,6.9,0,0,1,5.76,1.86,4.34,4.34,0,0,0,.48.77l2.84-.16a5.2,5.2,0,0,1,2.59.58c1,.27,1.56,1.25,1.72,2.93l-.24,1.28a25.32,25.32,0,0,1,4.55-.75,6.85,6.85,0,0,1,4.41,1.11,3.19,3.19,0,0,1,1.34,3.6,22.39,22.39,0,0,0-.59,2.55c.24.16.61.38,1.1.68,1.28.81,1.84,1.72,1.67,2.73a3.09,3.09,0,0,1-1.32,1.7,6.05,6.05,0,0,1,2.29,2.71C248,43.93,248.3,45,248.67,46.1Zm-23.48,4.42a3,3,0,0,1-2.25-2.47A9.77,9.77,0,0,1,225,44a4.39,4.39,0,0,1-2.56-.79c-.75-.75-.83-2-.23-3.64-4.26-1-6.6-2.62-7-4.81q-1,.47-3,1.35a3.92,3.92,0,0,1-4.32-1l-2.25,2.26,1.06,1.1a3.54,3.54,0,0,0,.4.76l0,1.27a8.16,8.16,0,0,1-2.9,4.87,4.75,4.75,0,0,1,1.61,1.52c.38.33.43,1.31.15,2.92,1.79.9,2.85,1.89,3.21,3a1.42,1.42,0,0,1,0,.71c.13,1.31-1,2.84-3.51,4.61,1.76.73,2.7,1.58,2.8,2.52s-.58,1.85-1.89,2.87c1.27.57,2,1.3,2.15,2.19q0-.07.69-.3h-.08a5,5,0,0,1,4.87.06,6.7,6.7,0,0,1,.47-1.31,7.24,7.24,0,0,1,6-2.59l.27.06c-.23-1.2.57-2.66,2.41-4.36,0-.06,0-.08-.09-.08a2.5,2.5,0,0,1-1.07-2.31A12,12,0,0,1,225.19,50.52Z"/><path class="cls-1" d="M333.54,58.09c.07.8-.44,1.73-1.51,2.78q1.55,2.31-.57,4.86c-.95,1.12-2.41,1.41-4.39.9a1.89,1.89,0,0,1-.74,2,10.32,10.32,0,0,1-1.53.56,2.49,2.49,0,0,1,.21,2.65c-.56.52-2.16,1.19-4.77,2a6.8,6.8,0,0,1-2.9-.1c-.69,2.06-1.73,3.16-3.14,3.32a17.21,17.21,0,0,1-7.29.56,4.09,4.09,0,0,1-2.06-.85,10.69,10.69,0,0,1-1.65,2.12,15.65,15.65,0,0,1-8.26,1.83A5.71,5.71,0,0,1,291.5,79c-.22-.44-.5-1.08-.83-1.94-5.24-.16-6.69-.14-4.37,0a4.57,4.57,0,0,1-3.64-1.63l-.85-1.21a12.48,12.48,0,0,1-5.35,1.06,7.7,7.7,0,0,1-4.28-1.17,4.38,4.38,0,0,1-1.82-3.47,3.08,3.08,0,0,1,.36-1.41l.45-1.1c-1.24-.17-3-.52-5.28-1-.59-.11-1.27-.71-2-1.81a2,2,0,0,1,.17-1.57l-.08-.08a4.6,4.6,0,0,1-4.34-.85,3.66,3.66,0,0,1-1.43-3.36,7.8,7.8,0,0,1,1.05-3l-1.34,0a6,6,0,0,1-4.65-2.16,5.94,5.94,0,0,1-1.1-3.54,10.14,10.14,0,0,1,1.91-5.9,3.66,3.66,0,0,1-.93-2.52,8,8,0,0,1,1.95-4.62,4.07,4.07,0,0,1-2.39-3.29c-.33-2.85.23-6.32,1.72-10.41.9-1.6,2.7-2.34,5.4-2.2q.45-2.61.54-2.85a3.59,3.59,0,0,1,1.79-2.23,6.07,6.07,0,0,1,3.18-.64,13.21,13.21,0,0,1,2.6-7.2,6.88,6.88,0,0,1,6-2.08,9,9,0,0,1,4.34,2.3c1.15-2.93,3-4.58,5.38-4.94a12.79,12.79,0,0,1,7.9.91c.45-.61.92-1.25,1.4-1.92a3.51,3.51,0,0,1,1.86-1.34,3.77,3.77,0,0,1,3.63.41,20.29,20.29,0,0,1,2.16,2.49L303,3.27a4.44,4.44,0,0,1,2.45-.69A3.87,3.87,0,0,1,307,3c.06.06.72.89,2,2.51a3.54,3.54,0,0,1,3.59-1,7.23,7.23,0,0,1,3.13,3.1,3.59,3.59,0,0,1,1.44-1,3.91,3.91,0,0,1,1.13-.07,11.51,11.51,0,0,1,4.28,2C323.2,9,324,10.5,325,13a1.15,1.15,0,0,0,.15.57,9.59,9.59,0,0,1,6,1.46c1.29,1,1.91,2,1.86,3-.05,1.8-.79,2.85-2.22,3.18q3.52,2.84,3.22,9a9.47,9.47,0,0,1-4.76,7.21,12.37,12.37,0,0,1-7,1.88,11.33,11.33,0,0,1-1.8-.32,14.42,14.42,0,0,1-7.8-4,12.57,12.57,0,0,1-3.71-7.4c-3.12.1-5.1-.6-6-2.13a3,3,0,0,1-.06-3.49v-.32l-2.95.23a9.29,9.29,0,0,0-1.54-.64l-.19-.09a5,5,0,0,1-3.71,4.65,4.51,4.51,0,0,1-5-.45l-1.71-1.33a6.8,6.8,0,0,1-2.9,3.15,9,9,0,0,1,.94,3.68,3.87,3.87,0,0,1-.87,2.5,5.4,5.4,0,0,1-3.3,1.73q1.2,4.47-.92,7.5,5.44,2.93,5.08,7.6c0,1-.7,1.83-2,2.63,2.18,1.23,3.19,2.62,3,4.14a11.11,11.11,0,0,1,3-.28,6.14,6.14,0,0,1,4,1.42,7.15,7.15,0,0,1,2.49,3.31c1.64-1.76,3.3-2.46,4.95-2.1a3.39,3.39,0,0,1,2,1.15q2.69-3.17,5.27-3l.09-.07a9.41,9.41,0,0,1-.11-1.75,6.63,6.63,0,0,1,3.66-6.08c2.63-1.34,6.35-2,11.15-1.92,3,.44,5.06,1.41,6.05,2.89a3.7,3.7,0,0,1,.21,3.92c.36.14.88.38,1.57.72A3.42,3.42,0,0,1,333.54,58.09Z"/><path class="cls-1" d="M392.29,84.36a5.49,5.49,0,0,1-3.9,5.45,5.33,5.33,0,0,1-3,.19,10.17,10.17,0,0,1-4.66-2.35,3.34,3.34,0,0,1-3.23,1.55,2.42,2.42,0,0,1-1.76-.72L375,87.14a4.72,4.72,0,0,1-3.51,0,2.52,2.52,0,0,1-1.17-1.41c-3.44,1.7-6.15,2.37-8.16,2a5.15,5.15,0,0,1-4.22-2.58c-.35-.74-.93-.65-1.05-1.25-2.23.14-3.27-.49-3.15-.47-.69-.1-.9-.44-1.27-.92-.15-.24-.31-.47-.47-.71-1.64,1.58-3.1,2.35-4.38,2.34a11.07,11.07,0,0,1-1.91-.1,6.57,6.57,0,0,1-4.63-2.5A5.55,5.55,0,0,1,340,76.34a13.65,13.65,0,0,1,2.19-3.47,3.67,3.67,0,0,1-2.41-2.2,4.34,4.34,0,0,1-.16-1.53c.11-1.52,1.05-3.21,2.84-5-.84-.69-1.34-1.12-1.51-1.3a2.14,2.14,0,0,1-.77-1.68c0-1.32.83-2.24,2.42-2.73a.25.25,0,0,0,.18-.05c-2.41-2.1-3.55-3.9-3.39-5.42q.2-1.57,2.5-3.59a4.27,4.27,0,0,1-1.73-3.79,9.3,9.3,0,0,1,.18-1.17,34.55,34.55,0,0,0,1.79-3.67,3.8,3.8,0,0,1-2.8-1.65,2.41,2.41,0,0,1,.19-2.8,6.51,6.51,0,0,1,3.07-2.17c0-5.19,1.72-8.48,5.2-9.84A15.71,15.71,0,0,1,355.32,23c4.38.78,7.33,2.77,8.83,5.93a9.85,9.85,0,0,1,1,5.1A4.9,4.9,0,0,1,364,37c-.27.31-.55.61-.82.91,1.71,1.38,2.47,2.73,2.29,4-.31.91-1.27,1.74-2.87,2.5q2.4,2.05,2.38,6.84a2.36,2.36,0,0,1-1.68,2.68,1.4,1.4,0,0,0-.55.08,3.92,3.92,0,0,1,.92,3.73,3.84,3.84,0,0,1-1.11,1.42c1.27,1.21,1.63,2.41,1.11,3.61A4.1,4.1,0,0,1,360.78,65c1.91,1.35,2.77,2.69,2.59,4l-.57,1.35a8.3,8.3,0,0,1,1.62-.22,6.17,6.17,0,0,1,4.64,2.68,10.81,10.81,0,0,1,3.21-.17,3.45,3.45,0,0,1,1.62.73l.65.63a5.14,5.14,0,0,1,4.74-2,3.7,3.7,0,0,1,3.63,3.57,5.64,5.64,0,0,1,1.68.08A9.38,9.38,0,0,1,389,78,9.93,9.93,0,0,1,392.29,84.36Z"/><path class="cls-1" d="M464.86,57.45c.51,2,0,3.33-1.59,4.13a8.06,8.06,0,0,1-2.85.39,9.19,9.19,0,0,1,1.24,5.94A1.47,1.47,0,0,1,460.08,69l-.37,0a6.49,6.49,0,0,1,1,4.08,4.8,4.8,0,0,1-3.11,3.32,10.83,10.83,0,0,0-1.38.22c1.64,2.09,2.39,4,2.27,5.69q-.6,2.33-3.62,2.43a3,3,0,0,1,1,2.67,2.59,2.59,0,0,1-1.4,1.27,2.84,2.84,0,0,1,.17,3.06,5,5,0,0,1-2.36,1.62,3.68,3.68,0,0,1,.58,4.34c-1.12,2.3-3.19,3.38-6.2,3.27a4.62,4.62,0,0,1-3.46-1.62c-.14.12-.36.33-.64.62a3.71,3.71,0,0,1-4.39.73,11.13,11.13,0,0,1-1.27-.94c-2.22,2.71-4.77,3.58-7.68,2.61-1.47-.36-2.73-1.7-3.8-4a6.92,6.92,0,0,1-3.31.33,2.84,2.84,0,0,1-1.38-.89,13,13,0,0,1-1.38-2,7.14,7.14,0,0,1-4.19.87,6.37,6.37,0,0,1-1.74-.2c-3.46-.85-5.3-3.08-5.52-6.73a3.87,3.87,0,0,1-3.23-.36c-1.17-1-1.71-1.86-1.6-2.7.06-.44.12-.88.17-1.32-1.11-.1-1.72-.15-1.84-.18A3.71,3.71,0,0,1,399,82.28,5.36,5.36,0,0,1,400.18,78c-1.44-.91-2.08-1.93-1.94-3.08A6.79,6.79,0,0,1,400,72.3c-1.92-.91-2.87-2.13-2.87-3.68a5.2,5.2,0,0,1,3.57-5.49,2.81,2.81,0,0,1-.95-2.61c0-1,.71-2.09,2.15-3.38-1.24-.71-1.81-2-1.71-3.91a8.71,8.71,0,0,1,2.8-4.85,2.13,2.13,0,0,1-1.2-2.19c.09-.73.66-1.33,1.7-1.79-1.5-1.72-1.74-3.83-.69-6.34l.36-.64c2.14-3.17,5.49-4.34,10-3.44a16.52,16.52,0,0,1,5.65,1.43c3.62,1.58,5.44,4.06,5.46,7.4A5.69,5.69,0,0,1,422,47.07c1.39,1,2.06,2.11,2,3.18a2.49,2.49,0,0,1-2.2,1.86A3.25,3.25,0,0,1,423,55.94l-1.88,1c1.31,2.81,1.81,4.79,1.52,6a1.71,1.71,0,0,1-1.5,1.55c-.31,0-.74.08-1.3.16a2.56,2.56,0,0,1,1,2.43,4.79,4.79,0,0,1-2,2.64A4.11,4.11,0,0,1,420.63,74a16.62,16.62,0,0,1-2,5.14,14,14,0,0,1,1.68.75,2.73,2.73,0,0,1,1.12,1.26,5.1,5.1,0,0,1,.3,1.93c.37-.12,1-.28,1.82-.5a5.38,5.38,0,0,1,2.72.08,8,8,0,0,1,3.88,2.26,5.28,5.28,0,0,1,3.55-3.23,4.34,4.34,0,0,1,2.36-.06,6.14,6.14,0,0,1-.31-2.6c.28-1,1.17-1.67,2.67-2-1.43-1.65-2-3.25-1.59-4.82a5.08,5.08,0,0,1,2.76-3.59,4.92,4.92,0,0,1-.66-1,2.36,2.36,0,0,1,.3-3,1.41,1.41,0,0,1,.9-.47v-.08A12.37,12.37,0,0,1,439,62.11a3.06,3.06,0,0,1-.44-1.91q.31-3.72,3.09-4.31l.87-.23a9,9,0,0,1-.4-1,6.53,6.53,0,0,1-.06-4.8c1.13-2.81,3.58-4.14,7.35-4a10.73,10.73,0,0,1,6.82,2.79,8.94,8.94,0,0,1,2.24,4.85,7.36,7.36,0,0,1,4,1.18A4.35,4.35,0,0,1,464.86,57.45ZM401,62.31l-.08-.09-.09,0,.08.09Z"/><path class="cls-1" d="M522.19,113a5.75,5.75,0,0,1-.16,1,3.59,3.59,0,0,1-3.13,2.69H518c1.55,1.91,2.13,3.37,1.76,4.37q-1.25,1.36-5-.11c.25,1.22.2,2-.14,2.44-.31.25-.63.53-1,.82a1.17,1.17,0,0,1-1.19.23,8.23,8.23,0,0,1-1-.57,3.94,3.94,0,0,1-1.73.41,16.41,16.41,0,0,1-5.61-.72,5.12,5.12,0,0,1-1.89-1.61,4,4,0,0,1-1.28,1.29,10.93,10.93,0,0,1-6.68.51c-1.82-.4-2.85-1.68-3.09-3.87a8.17,8.17,0,0,1-2.91-.23,2.4,2.4,0,0,1-1.21-1q-.27-.42-.72-1.26c-3.93,1.07-7,1.22-9.21.41a7.23,7.23,0,0,1-4.46-4.41c0-.12-.11-.34-.23-.65-2.24.78-4,1-5.36.49a4,4,0,0,1-2.92-2.89,7.18,7.18,0,0,1,1.17-2.87,5.73,5.73,0,0,1-3.35-2.12c-.67-.87-.66-2.07,0-3.58.84-1.29,2.5-2.46,5-3.46l-.9-.51a2.11,2.11,0,0,1-.88-1.08c-.1-.41.38-1.18,1.43-2.29A6,6,0,0,1,462.64,91a3.29,3.29,0,0,1,.85-3.15,16.22,16.22,0,0,1,3.79-2.73,7.1,7.1,0,0,1-1.14-1.45,2.74,2.74,0,0,1,.21-2.79,5.61,5.61,0,0,1,3.09-2.79c-1.09-1-1.51-1.93-1.23-2.71a6.19,6.19,0,0,1,3.8-3.53A19.74,19.74,0,0,1,471,70a7.5,7.5,0,0,1-.59-4.21,3.4,3.4,0,0,1,1-1.94,9.36,9.36,0,0,1,5.95-3.28,12.62,12.62,0,0,1,6.57.43,11.38,11.38,0,0,1,2.14,1,8.7,8.7,0,0,1,3.68-.54,4.92,4.92,0,0,1,2.64,1.35,3.11,3.11,0,0,1,1.3,2.34,11,11,0,0,1,6.17,2.36A7.48,7.48,0,0,1,501.31,69a11.62,11.62,0,0,1,7.71-.73,4.07,4.07,0,0,1,2.83,4.22c.37,0,.94.14,1.72.3a5.93,5.93,0,0,1,4.22,2.6,2.19,2.19,0,0,1,.3,2.37,3.26,3.26,0,0,1-.82.65,12.08,12.08,0,0,1,3.9,3.66,8.45,8.45,0,0,1,1.68,4.57,5.07,5.07,0,0,1-2.59,4.53,7.61,7.61,0,0,1,1.4,2.7c.29,1.13.17,1.88-.36,2.26a4.8,4.8,0,0,1-3.22.26,6.75,6.75,0,0,1,.76,3.42,1.7,1.7,0,0,1-.35.68c-.55.48-1.88.48-4,0a6,6,0,0,1,.63,3.19,2.13,2.13,0,0,1-.5,1C518.91,106.29,521.44,109.09,522.19,113ZM504.44,85.81c-.91-1.47-1.26-2.46-1-3a14.52,14.52,0,0,1-2-.14,4.9,4.9,0,0,1-2.65-2,2.1,2.1,0,0,1-.15-1.46,47,47,0,0,1-6-.18,3.91,3.91,0,0,1-.46,4l-.07-.11a11.55,11.55,0,0,1-.76,1,2.7,2.7,0,0,1-.74.87,6.28,6.28,0,0,1,3.24,2.14,2.28,2.28,0,0,0,.47.84,9.37,9.37,0,0,1,5.17.46l1.28.5a7.06,7.06,0,0,0,1,.83c0-.17,0-.33,0-.49A3.07,3.07,0,0,1,504.44,85.81Zm-17.39,17c-.21.14-.3.24-.25.32S487,103,487.05,102.78Zm13.8,3.93a15.32,15.32,0,0,1-.52-2.95,2.55,2.55,0,0,1,.32-.82c.14-.24.26-.29.35-.14a12,12,0,0,1-1.95-2.77,14.3,14.3,0,0,1-2.67.09,4.85,4.85,0,0,1-2.52-2.31,8.44,8.44,0,0,1-3.21.9,2.59,2.59,0,0,1-1.91-.89,1.59,1.59,0,0,0,0,.62,2,2,0,0,1,0,.77,6.73,6.73,0,0,1-1.79,4.18l1.31.25a4,4,0,0,1,3,2.63,8,8,0,0,1,3.53.47,18.57,18.57,0,0,1,2.37,1.61c.07-.14.13-.28.19-.42C498,106.89,499.2,106.48,500.85,106.71ZM487.66,102l-.11.12.08,0Zm.25-.31-.13.19Zm4.29-19v0Zm5.62-3.69-.2.09.09,0Z"/></g></g></svg>